<svg t="1736239101884" class="icon" viewBox="0 0 1280 1024" version="1.1" xmlns="http://www.w3.org/2000/svg" p-id="48254" width="200" height="200"><path d="M1194.368 453.376h-239.872a49.856 49.856 0 0 0-49.408 50.112v15.552c0 27.584 22.016 50.112 49.408 50.112h239.744a49.792 49.792 0 0 0 49.344-50.112v-15.552a49.664 49.664 0 0 0-49.216-50.112zM637.888 23.04c-74.496 60.096-230.72 144.576-343.04 225.664h-0.128c-1.28 0.768-2.56 5.312-3.84 6.08-13.44 7.488-19.328 28.48-91.52 28.48H58.688c-36.16 0-58.688 17.28-58.688 56v343.936c0 38.72 20.608 57.856 58.688 57.856h141.184c71.808 0 77.632 20.864 90.88 28.544 1.28 0.64 2.56 5.312 3.84 5.952l0.128 0.128c108.8 80.96 265.92 171.904 343.04 229.76 23.168 17.408 100.352 48 100.352-59.52V77.76C738.368-29.696 660.48 4.736 637.888 23.04z m221.44 237.056c12.864 22.784 38.016 28.608 56.384 12.8L1112.96 104.32c18.56-15.808 22.912-46.912 10.24-69.76l-7.104-12.8c-12.736-22.784-38.08-28.608-56.32-12.8L862.272 177.28c-18.496 15.808-22.912 46.912-10.24 69.952l7.296 12.8z m253.568 659.52l-197.12-168.576c-18.56-15.808-43.712-9.984-56.384 12.736l-7.232 12.8c-12.8 22.784-8.192 54.016 10.24 69.952l197.12 168.512c18.56 15.808 43.648 10.112 56.32-12.672l7.296-12.8c12.8-22.976 8.128-54.208-10.24-69.952z" fill="#007DBF" p-id="48255"></path></svg>