<svg t="1736238027931" class="icon" viewBox="0 0 1024 1024" version="1.1" xmlns="http://www.w3.org/2000/svg" p-id="39628" width="200" height="200"><path d="M845.79669333 21.67421155L144.18284089 21.67421155c-59.88534045 0-107.94507378 48.234496-107.94507378 107.65380267l0 756.13980445c0 59.47756089 48.35100445 107.65380267 107.94507378 107.65380266L845.79669333 993.12162133c59.88534045 0 107.94507378-48.234496 107.94507378-107.65380266L953.74176711 129.38626845C953.74176711 69.85045333 905.44901689 21.67421155 845.79669333 21.67421155zM258.01159111 162.47466667c44.73924267 0 80.97336889 35.94285511 80.97336889 80.97336888 0 44.73924267-35.94285511 80.97336889-80.97336889 80.9733689-44.73924267 0-80.97336889-35.94285511-80.97336889-80.9733689C177.03822222 198.70879289 212.98107733 162.47466667 258.01159111 162.47466667zM505.59203555 772.571136L177.03822222 772.571136l0-53.94340978L505.59203555 718.62772622 505.59203555 772.571136zM693.28713955 631.77068089L177.03822222 631.77068089 177.03822222 577.82727111l516.24891733 0L693.28713955 631.77068089zM693.28713955 491.02848L177.03822222 491.02848 177.03822222 437.026816l516.24891733 0L693.28713955 491.02848z" fill="#ff5e5e" p-id="39629"></path></svg>