<svg t="1736232932374" class="icon" viewBox="0 0 1024 1024" version="1.1" xmlns="http://www.w3.org/2000/svg" p-id="6095" width="200" height="200"><path d="M512 884.363636c-50.059636 0-98.722909-9.890909-144.64-29.393454a372.922182 372.922182 0 0 1-118.365091-79.965091 372.922182 372.922182 0 0 1-79.965091-118.365091A367.872 367.872 0 0 1 139.636364 512c0-50.036364 9.890909-98.722909 29.393454-144.64a372.945455 372.945455 0 0 1 79.965091-118.365091 372.922182 372.922182 0 0 1 118.365091-79.965091A367.872 367.872 0 0 1 512 139.636364c50.059636 0 98.722909 9.890909 144.64 29.393454a372.945455 372.945455 0 0 1 118.365091 79.965091 372.922182 372.922182 0 0 1 79.965091 118.365091A367.872 367.872 0 0 1 884.363636 512c0 50.059636-9.890909 98.722909-29.393454 144.64a372.945455 372.945455 0 0 1-79.965091 118.365091 372.922182 372.922182 0 0 1-118.365091 79.965091A367.848727 367.848727 0 0 1 512 884.363636z m0-698.181818c-43.776 0-86.341818 8.634182-126.464 25.693091a326.516364 326.516364 0 0 0-103.633455 70.050909 326.516364 326.516364 0 0 0-70.027636 103.610182A321.629091 321.629091 0 0 0 186.181818 512c0 43.776 8.634182 86.341818 25.693091 126.464a326.516364 326.516364 0 0 0 70.050909 103.633455 326.516364 326.516364 0 0 0 103.610182 70.027636A321.652364 321.652364 0 0 0 512 837.818182c43.776 0 86.341818-8.657455 126.464-25.693091a326.516364 326.516364 0 0 0 103.633455-70.050909 326.516364 326.516364 0 0 0 70.027636-103.610182A321.652364 321.652364 0 0 0 837.818182 512c0-43.776-8.657455-86.341818-25.693091-126.464a326.516364 326.516364 0 0 0-70.050909-103.633455 326.516364 326.516364 0 0 0-103.610182-70.027636A321.652364 321.652364 0 0 0 512 186.181818z m-170.077091 512.162909a18.013091 18.013091 0 0 1-17.408-22.667636l70.865455-265.774546a18.013091 18.013091 0 0 1 12.753454-12.753454l265.774546-70.865455a18.013091 18.013091 0 0 1 22.039272 22.039273l-70.865454 265.774546a18.013091 18.013091 0 0 1-12.776727 12.753454L346.554182 697.716364a18.013091 18.013091 0 0 1-4.654546 0.628363z m85.573818-269.079272l-60.16 225.62909 225.605818-60.16 60.16-225.62909-225.605818 60.16z m111.755637 126.138181a17.966545 17.966545 0 0 1-12.730182-5.282909l-46.801455-46.778182a18.013091 18.013091 0 1 1 25.483637-25.506909l46.778181 46.801455a18.013091 18.013091 0 0 1-12.730181 30.766545z" fill="#21A3DD" p-id="6096"></path></svg>