<?xml version="1.0" standalone="no"?><!DOCTYPE svg PUBLIC "-//W3C//DTD SVG 1.1//EN" "http://www.w3.org/Graphics/SVG/1.1/DTD/svg11.dtd"><svg t="1736335098075" class="icon" viewBox="0 0 1024 1024" version="1.1" xmlns="http://www.w3.org/2000/svg" p-id="25410" xmlns:xlink="http://www.w3.org/1999/xlink" width="200" height="200"><path d="M658.248192 512.032768q0-60.567552-42.8544-103.421952t-103.421952-42.8544-103.421952 42.8544-42.8544 103.421952 42.8544 103.421952 103.421952 42.8544 103.421952-42.8544 42.8544-103.421952zm292.552704-62.281728l0 126.849024q0 6.856704-4.571136 13.142016t-11.42784 7.428096l-105.70752 15.998976q-10.856448 30.855168-22.284288 51.996672 19.99872 28.5696 61.138944 78.852096 5.71392 6.856704 5.71392 14.2848t-5.142528 13.142016q-15.427584 21.141504-56.567808 61.710336t-53.710848 40.568832q-6.856704 0-14.856192-5.142528l-78.852096-61.710336q-25.141248 13.142016-51.996672 21.712896-9.142272 77.709312-16.570368 106.278912-3.999744 15.998976-20.570112 15.998976l-126.849024 0q-7.999488 0-13.999104-4.856832t-6.571008-12.284928l-15.998976-105.136128q-27.998208-9.142272-51.42528-21.141504l-80.566272 61.138944q-5.71392 5.142528-14.2848 5.142528-7.999488 0-14.2848-6.285312-71.995392-65.138688-94.27968-95.993856-3.999744-5.71392-3.999744-13.142016 0-6.856704 4.571136-13.142016 8.57088-11.999232 29.140992-37.997568t30.855168-40.283136q-15.427584-28.5696-23.427072-56.567808l-104.564736-15.427584q-7.428096-1.142784-11.999232-7.1424t-4.571136-13.427712l0-126.849024q0-6.856704 4.571136-13.142016t10.856448-7.428096l106.278912-15.998976q7.999488-26.284032 22.284288-52.568064-22.85568-32.569344-61.138944-78.852096-5.71392-6.856704-5.71392-13.713408 0-5.71392 5.142528-13.142016 14.856192-20.570112 56.282112-61.42464t53.996544-40.854528q7.428096 0 14.856192 5.71392l78.852096 61.138944q25.141248-13.142016 51.996672-21.712896 9.142272-77.709312 16.570368-106.278912 3.999744-15.998976 20.570112-15.998976l126.849024 0q7.999488 0 13.999104 4.856832t6.571008 12.284928l15.998976 105.136128q27.998208 9.142272 51.42528 21.141504l81.137664-61.138944q5.142528-5.142528 13.713408-5.142528 7.428096 0 14.2848 5.71392 73.709568 67.995648 94.27968 97.13664 3.999744 4.571136 3.999744 12.570624 0 6.856704-4.571136 13.142016-8.57088 11.999232-29.140992 37.997568t-30.855168 40.283136q14.856192 28.5696 23.427072 55.996416l104.564736 15.998976q7.428096 1.142784 11.999232 7.1424t4.571136 13.427712z" fill="#272636" p-id="25411"></path></svg>