<svg t="1736230919814" class="icon" viewBox="0 0 1024 1024" version="1.1" xmlns="http://www.w3.org/2000/svg" p-id="2687" width="200" height="200"><path d="M532.736 103.509333c-68.906667 4.138667-134.272 27.264-187.818667 66.474667-66.688 48.810667-117.546667 115.541333-145.066666 190.464-5.12 14.122667-10.026667 29.184-10.026667 31.317333 0 0.426667 136.106667 0.853333 366.549333 0.853334 300.928 0 366.805333-0.298667 366.805334-1.28 0-1.706667-5.461333-18.730667-10.069334-31.317334a505.088 505.088 0 0 0-29.141333-61.312 429.994667 429.994667 0 0 0-52.437333-70.997333c-58.666667-64.853333-127.744-104.533333-206.933334-118.741333a424.106667 424.106667 0 0 0-91.904-5.461334h0.042667z m399.872 336.128c-0.682667 0-170.368 0-377.173333 0.170667l-375.936 0.298667-0.426667 2.090666c-2.218667 14.677333-3.797333 29.44-4.736 44.288 0 0.981333 63.445333 1.109333 382.08 1.109334H938.666667v-2.645334c0-3.626667-2.474667-28.245333-3.754667-37.589333-0.725333-5.717333-1.450667-7.68-2.261333-7.68z m-375.893333 93.909334c-333.141333-0.128-381.525333 0-381.952 1.28-0.725333 1.408 0.853333 19.84 2.645333 34.645333 0.725333 5.589333 1.28 10.624 1.28 11.178667 0 0.981333 75.946667 1.28 377.728 1.28h377.728l0.853333-6.698667c1.536-11.648 3.626667-34.56 3.370667-38.016l-0.298667-3.370667-381.354666-0.298666z m0.085333 96.853333c-315.818667 0-366.933333 0.128-366.933333 1.28 0 0.682667 1.877333 7.381333 4.266666 14.933333a396.458667 396.458667 0 0 0 73.642667 133.248c10.026667 12.202667 33.578667 36.906667 43.648 45.866667 55.765333 49.877333 115.456 78.933333 184.149333 90.112 21.546667 3.370667 31.573333 4.053333 62.250667 3.925333 32.341333 0 46.122667-1.109333 71.936-6.272 75.050667-14.848 139.178667-51.712 196.608-112.938666 45.056-48.042667 74.88-98.346667 93.44-157.141334l4.181333-13.013333H556.8z" fill="#2E2255" p-id="2688"></path><path d="M480.298667 85.333333c-9.728 0.128-21.461333 0.426667-26.197334 0.853334-129.578667 11.136-245.418667 87.978667-312.618666 207.061333a446.976 446.976 0 0 0-55.381334 187.093333c-1.450667 18.432-0.725333 62.165333 1.237334 78.677334 10.88 95.573333 48.085333 180.266667 109.141333 248.106666 69.76 77.44 163.029333 123.52 264.405333 130.517334 14.933333 1.109333 37.12 1.408 36.266667 0.426666a86.058667 86.058667 0 0 0-11.989333-2.645333c-59.52-11.776-120.490667-40.277333-169.856-79.530667a439.466667 439.466667 0 0 1-87.125334-93.866666 441.941333 441.941333 0 0 1-75.861333-232.234667 443.178667 443.178667 0 0 1 19.925333-152.32c27.904-89.813333 84.266667-168.362667 159.104-221.866667a393.386667 393.386667 0 0 1 150.613334-66.773333l15.786666-3.498667h-17.450666z" fill="#FAA13B" p-id="2689"></path></svg>