<svg t="1736237408343" class="icon" viewBox="0 0 1024 1024" version="1.1" xmlns="http://www.w3.org/2000/svg" p-id="7649" width="200" height="200"><path d="M695.2 602.2s-4.4-15.8 12-46 29.4-13.8 29.4-13.8 14.2 15.4-2 38.2c-16 23.2-39.4 21.6-39.4 21.6zM568.4 624c-19 49.6-64.8 29.4-64.8 29.4s-5.2-17.8 9.6-67.2c15-49.6 50-30.2 50-30.2s24 18.4 5.2 68zM534 416.4s28.6-74.6 35.4-38.2-60 144.2-60 144.2c0.8-24.2 24.6-106 24.6-106zM125 602.2c1.2-48 32.6-69 43.6-58.4 10.8 10.4 6.8 33-13.8 47.2s-29.8 11.2-29.8 11.2z m866.8-8c-1.6-16.2-16.2-10.2-16.2-10.2s-23.4 18.2-44 16.2-14.2-48-14.2-48 4.4-42.2-7.6-45.6c-12-3.6-27 11-27 11s-18.6 20.6-27.4 46.8l-2.4 0.8s2.8-46-0.4-56.4c-2.4-5.2-24.6-4.8-28.2 4.4-3.6 9.2-21.4 73.8-22.6 100.8 0 0-34.6 29.4-64.8 34.2-30.2 4.8-37.4-14.2-37.4-14.2s82.2-23 79.4-88.6-66.2-41.4-73.4-36c-7 5.2-44 27.6-54.8 89.6-0.4 2.2-1 11.4-1 11.4s-31.8 21.4-49.6 27c0 0 49.6-83.4-10.8-121.2-27.4-16.6-49.2 18.2-49.2 18.2s81.8-91 63.6-168c-8.6-36.6-27-40.6-43.8-34.6-25.6 10-35.2 25-35.2 25s-33 48-40.6 119.2c-7.6 71.4-19 157.6-19 157.6s-15.8 15.4-30.2 16.2-8-43.2-8-43.2 11.2-66.8 10.4-78.2c-0.8-11.2-1.6-17.4-15-21.4-13.2-4-27.8 12.8-27.8 12.8s-38.2 58-41.6 66.8l-2 3.6-2-2.4s27-79 1.2-80.2c-25.8-1.2-42.8 28.2-42.8 28.2s-29.4 49.2-30.6 54.8l-2-2.4s12-57.2 9.6-71.4c-2.4-14.2-15.8-11.2-15.8-11.2s-17-2-21.4 8.8c-4.4 10.8-20.6 83-22.6 106 0 0-42.4 30.2-70.2 30.6S130 633.4 130 633.4s102-34.8 74.2-103.8c-12.4-17.8-27-23.4-47.6-23-20.6 0.4-46 13-62.6 50-7.8 17.6-10.8 34.4-12.4 47.2 0 0-17.8 3.6-27.6-4.4s-14.6 0-14.6 0-16.6 21.2 0 27.6c16.6 6.4 42.4 9.4 42.4 9.4 2.4 11.2 9.2 30.4 29.4 45.8 30.2 23 88.2-2.2 88.2-2.2l23.8-13.4s0.8 21.8 18.2 25c17.4 3.2 24.6 0 54.8-73.4 17.8-37.4 19-35.4 19-35.4l2-0.4s-13.8 71.8-8.4 91c5.2 19.4 28.2 17.4 28.2 17.4s12.4 2.4 22.6-33c10-35.4 29.4-74.6 29.4-74.6h2.4s-8.4 73.4 4.4 96.8c12.8 23.4 46.4 7.8 46.4 7.8s23.4-11.8 27-15.4c0 0 27.8 23.6 66.8 19.4 87.4-17.2 118.6-40.4 118.6-40.4s15 38 61.6 41.6c53.2 4 82.2-29.4 82.2-29.4s-0.4 21.8 18.2 29.4c18.6 7.6 31-35.4 31-35.4l31-85.6h2.8s1.6 55.6 32.2 64.4c30.6 8.8 70.6-20.8 70.6-20.8s9.2-5.2 7.6-21.4z" fill="#008CDB" p-id="7650"></path></svg>