<svg t="1736233817302" class="icon" viewBox="0 0 1024 1024" version="1.1" xmlns="http://www.w3.org/2000/svg" p-id="45218" width="200" height="200"><path d="M823.383 434.5h-68.688V274.688C754.695 140.875 645.883 32 512.07 32c-133.89 0-242.765 108.875-242.765 242.688V434.5h-68.688c-33.125 0-59.938 26.813-59.938 59.938V932c0 33.188 26.813 60 59.938 60h622.828c33.125 0 59.875-26.813 59.875-60V494.438c0-33.125-26.812-59.938-59.937-59.938M545.695 724.625v95.563c0 4.25-3.5 7.875-7.875 7.875h-51.578c-4.313 0-7.875-3.625-7.875-7.875v-95.563c-24.188-12.375-40.938-37.188-40.938-66.25 0-41.188 33.375-74.625 74.563-74.625 41.203 0 74.578 33.438 74.578 74.625 0.125 29.063-16.625 53.875-40.875 66.25M661.57 434.5H362.492V278.625c0-82.438 67.188-149.563 149.641-149.563 82.375 0 149.438 67.125 149.438 149.563V434.5z" fill="#ff3b30" p-id="45219"></path></svg>