<svg t="1736232775985" class="icon" viewBox="0 0 1024 1024" version="1.1" xmlns="http://www.w3.org/2000/svg" p-id="70541" width="200" height="200"><path d="M123.733333 85.824l19.797334 3.498667c164.352 29.013333 287.744 43.776 369.728 44.309333 81.984 0.554667 204.650667-12.586667 367.573333-39.466667l19.989333-3.306666 4.330667 19.776 3.776 17.173333a885.12 885.12 0 0 1 20.821333 198.762667c-1.088 161.130667-43.584 313.002667-120 427.776-38.229333 57.429333-82.986667 102.72-133.034666 134.442666a330.154667 330.154667 0 0 1-75.968 36.330667 296.576 296.576 0 0 1-94.122667 14.592c-59.306667-0.32-116.437333-18.261333-169.472-53.077333-49.706667-32.576-93.866667-78.442667-131.306667-136.192-74.88-115.882667-115.370667-268.352-114.282666-429.44 0.469333-67.84 8.32-134.506667 23.424-198.357334l8.746666-36.821333z m68.096 93.653333a807.850667 807.850667 0 0 0-13.397333 142.165334c-0.938667 144.597333 34.88 280.192 100.373333 381.44 62.4 96.490667 143.573333 149.013333 228.224 149.546666a210.730667 210.730667 0 0 0 67.050667-10.517333c60.373333-19.626667 116.693333-66.154667 163.114667-135.893333 66.837333-100.266667 104.362667-235.306667 105.408-380.16a817.28 817.28 0 0 0-11.413334-142.293334c-139.861333 21.76-245.802667 32.448-318.208 31.978667-73.088-0.490667-180.010667-12.586667-321.152-36.266667z m487.616 443.370667l1.621334-2.069333a170.709333 170.709333 0 0 1-338.133334 0A212.992 212.992 0 0 0 512 704a212.949333 212.949333 0 0 0 167.466667-81.152l1.6-2.069333-1.621334 2.069333zM247.616 362.666667l214.613333 108.437333a120.32 120.32 0 0 1-221.568-16.725333A120.042667 120.042667 0 0 1 247.616 362.666667z m521.664 0a120.106667 120.106667 0 0 1-107.242667 174.357333A120.170667 120.170667 0 0 1 554.666667 471.104L769.28 362.666667z" fill="#000000" p-id="70542"></path></svg>