<?xml version="1.0" standalone="no"?><!DOCTYPE svg PUBLIC "-//W3C//DTD SVG 1.1//EN" "http://www.w3.org/Graphics/SVG/1.1/DTD/svg11.dtd"><svg t="1736335102418" class="icon" viewBox="0 0 1024 1024" version="1.1" xmlns="http://www.w3.org/2000/svg" p-id="25717" xmlns:xlink="http://www.w3.org/1999/xlink" width="200" height="200"><path d="M154.437818 1019.648c-82.757818 0-150.085818-67.328-150.085818-150.085818 0-82.734545 67.328-150.062545 150.085818-150.062545 82.734545 0 150.062545 67.351273 150.062545 150.062545C304.500364 952.32 237.172364 1019.648 154.437818 1019.648z" fill="#272636" p-id="25718"></path><path d="M154.437818 304.546909c-82.757818 0-150.085818-67.328-150.085818-150.085818 0-82.781091 67.328-150.109091 150.085818-150.109091 82.734545 0 150.062545 67.328 150.062545 150.109091C304.500364 237.218909 237.172364 304.546909 154.437818 304.546909z" fill="#272636" p-id="25719"></path><path d="M154.437818 661.201455c-82.757818 0-150.085818-67.328-150.085818-150.085818 0-82.757818 67.328-150.085818 150.085818-150.085818 82.734545 0 150.062545 67.328 150.062545 150.085818C304.500364 593.896727 237.172364 661.201455 154.437818 661.201455z" fill="#272636" p-id="25720"></path><path d="M512 1019.648c-82.757818 0-150.085818-67.328-150.085818-150.085818 0-82.734545 67.328-150.062545 150.085818-150.062545 82.734545 0 150.062545 67.351273 150.062545 150.062545C662.039273 952.32 594.734545 1019.648 512 1019.648z" fill="#272636" p-id="25721"></path><path d="M512 304.546909c-82.757818 0-150.085818-67.328-150.085818-150.085818 0-82.781091 67.328-150.109091 150.085818-150.109091 82.734545 0 150.062545 67.328 150.062545 150.109091C662.039273 237.218909 594.734545 304.546909 512 304.546909z" fill="#272636" p-id="25722"></path><path d="M512 661.201455c-82.757818 0-150.085818-67.328-150.085818-150.085818 0-82.757818 67.328-150.085818 150.085818-150.085818 82.734545 0 150.062545 67.328 150.062545 150.085818C662.039273 593.896727 594.734545 661.201455 512 661.201455z" fill="#272636" p-id="25723"></path><path d="M869.538909 1019.648c-82.781091 0-150.085818-67.328-150.085818-150.085818 0-82.734545 67.328-150.062545 150.085818-150.062545s150.085818 67.351273 150.085818 150.062545C1019.648 952.32 952.32 1019.648 869.538909 1019.648z" fill="#272636" p-id="25724"></path><path d="M869.538909 304.546909c-82.781091 0-150.085818-67.328-150.085818-150.085818 0-82.781091 67.328-150.109091 150.085818-150.109091s150.085818 67.328 150.085818 150.109091C1019.648 237.218909 952.32 304.546909 869.538909 304.546909z" fill="#272636" p-id="25725"></path><path d="M869.538909 661.201455c-82.781091 0-150.085818-67.328-150.085818-150.085818 0-82.757818 67.328-150.085818 150.085818-150.085818s150.085818 67.328 150.085818 150.085818C1019.648 593.896727 952.32 661.201455 869.538909 661.201455z" fill="#272636" p-id="25726"></path></svg>