<?xml version="1.0" standalone="no"?><!DOCTYPE svg PUBLIC "-//W3C//DTD SVG 1.1//EN" "http://www.w3.org/Graphics/SVG/1.1/DTD/svg11.dtd"><svg t="1736335096503" class="icon" viewBox="0 0 1024 1024" version="1.1" xmlns="http://www.w3.org/2000/svg" p-id="25250" xmlns:xlink="http://www.w3.org/1999/xlink" width="200" height="200"><path d="M766.25408 262.13376c-41.57952-41.57952-97.85344-69.21728-129.8432-37.23264L317.3632 543.9488c-51.01568 51.01568-55.04 129.9968-8.98048 176.05632 46.06464 46.06464 125.04064 42.0352 176.05632-8.98048l319.04768-319.04768C835.47136 359.9872 807.8336 303.71328 766.25408 262.13376L766.25408 262.13376zM457.18528 683.77088 457.18528 683.77088c-35.98848 35.98848-90.51136 40.01792-121.5488 8.98048-31.03232-31.03232-27.008-85.56032 8.98048-121.5488l319.04768-319.04768c8.99584-8.99584 43.12576 5.01248 75.3408 37.22752 32.21504 32.21504 46.22336 66.34496 37.22752 75.3408L457.18528 683.77088 457.18528 683.77088z" fill="#A8C15C" p-id="25251"></path><path d="M872.46336 338.23744l-182.31808-182.31808c-11.5712-11.5712-30.49984-11.5712-42.07104 0l-23.41888 23.41888c-11.5712 11.5712-11.56608 30.49984 0.00512 42.07104l182.31808 182.31808c11.56608 11.56608 30.49984 11.57632 42.07104 0.00512l23.41888-23.41888C884.03456 368.7424 884.03456 349.80864 872.46336 338.23744L872.46336 338.23744z" fill="#A8C15C" p-id="25252"></path><path d="M370.67264 710.30272 318.08 657.7152c-11.5712-11.5712-28.89728-13.17888-38.5024-3.57376l-18.91328 18.91328c-9.60512 9.60512-8.00256 26.93632 3.56864 38.50752l52.59264 52.59264c11.56096 11.56096 28.9024 13.17888 38.50752 3.57376l18.91328-18.91328C383.85664 739.20512 382.2336 721.8688 370.67264 710.30272L370.67264 710.30272z" fill="#A8C15C" p-id="25253"></path><path d="M744.49408 248.832 779.55072 283.89376 953.10336 110.34112 918.04672 75.27936 744.49408 248.832Z" fill="#A8C15C" p-id="25254"></path><path d="M557.48096 435.84512 592.5376 470.90688 718.45376 344.99584 683.392 309.93408 557.48096 435.84512Z" fill="#A8C15C" p-id="25255"></path><path d="M1007.75424 115.90656 912.48128 20.6336c-16.2816-16.2816-39.68512-19.2768-52.27008-6.69184-12.58496 12.58496-9.58976 35.98848 6.69184 52.27008l95.26784 95.26784c16.2816 16.2816 39.69024 19.28192 52.2752 6.69696C1027.03616 155.59168 1024.03584 132.18816 1007.75424 115.90656L1007.75424 115.90656z" fill="#A8C15C" p-id="25256"></path><path d="M309.61664 725.5296c0 0 0 0-4.70528-4.70528-3.68128-3.68128-3.68128-3.68128-3.68128-3.68128-3.32288-4.06016-15.50848 2.07872-27.0848 13.65504L38.56896 966.3744c-11.5712 11.5712-15.75936 26.32192-9.3184 32.76288 6.44608 6.44608 21.19168 2.2528 32.76288-9.3184l235.99104-235.99104C309.57568 742.25152 314.79296 729.5232 309.61664 725.5296L309.61664 725.5296z" fill="#A8C15C" p-id="25257"></path><path d="M498.37568 452.1216l-136.41728 136.41728c-26.42432 26.42432-30.45376 65.39776-8.98048 86.87104 21.4784 21.4784 60.44672 17.44384 86.87104-8.98048l136.41216-136.4224L498.37568 452.1216 498.37568 452.1216z" fill="#A8C15C" p-id="25258"></path><path d="M617.80992 466.37568l-55.79776-55.79776c-9.53344-9.53344-25.00096-9.53344-34.53952 0-9.54368 9.54368-9.54368 25.0112-0.01024 34.54464l55.79776 55.79776c9.53344 9.53344 25.00096 9.53856 34.54976-0.01024C627.34336 491.38176 627.34336 475.91424 617.80992 466.37568L617.80992 466.37568z" fill="#A8C15C" p-id="25259"></path></svg>