<?xml version="1.0" standalone="no"?><!DOCTYPE svg PUBLIC "-//W3C//DTD SVG 1.1//EN" "http://www.w3.org/Graphics/SVG/1.1/DTD/svg11.dtd"><svg t="1736335100390" class="icon" viewBox="0 0 1024 1024" version="1.1" xmlns="http://www.w3.org/2000/svg" p-id="25562" xmlns:xlink="http://www.w3.org/1999/xlink" width="200" height="200"><path d="M756.238249 567.617978 756.238249 134.020272c0-72.946642-59.334369-132.281011-132.281011-132.281011-72.946642 0-132.281011 59.334369-132.281011 132.281011l0 433.597706c-71.509194 45.195202-115.128831 123.461936-115.128831 208.931256 0 136.496161 110.959721 247.450766 247.404727 247.450766 136.424544 0 247.409842-110.954605 247.409842-247.450766C871.361965 691.02876 827.726982 612.818296 756.238249 567.617978zM623.957238 955.641937c-98.718394 0-179.015971-80.3385-179.015971-179.092703 0-66.982001 37.036023-127.804973 96.661974-158.804738 11.366581-5.887909 18.446395-17.571649 18.446395-30.339869l0-453.384355c0-35.204684 28.687571-63.882024 63.912717-63.882024 35.245608 0 63.871793 28.677341 63.871793 63.882024l0 453.384355c0 12.773336 7.120738 24.45196 18.446395 30.339869 59.646413 30.999765 96.702898 91.822737 96.702898 158.804738C802.973209 875.308552 722.696094 955.641937 623.957238 955.641937z" fill="#F3C9C8" p-id="25563"></path><path d="M641.048032 651.020647 641.048032 134.409048c0-9.473856-7.616939-17.121487-17.090795-17.121487-9.473856 0-17.131718 7.647632-17.131718 17.121487l0 516.611599c-62.040454 8.491685-110.1924 61.268018-110.1924 125.533703 0 70.220095 57.144947 127.359926 127.324118 127.359926 70.199633 0 127.303656-57.134716 127.303656-127.359926C751.260894 712.288665 703.108949 659.512332 641.048032 651.020647zM623.957238 869.727571c-51.338885 0-93.101605-41.752489-93.101605-93.173222 0-51.297961 41.76272-93.045335 93.101605-93.045335 51.318423 0 93.122067 41.752489 93.122067 93.045335C717.079305 827.975082 675.275661 869.727571 623.957238 869.727571z" fill="#F3C9C8" p-id="25564"></path><path d="M302.204229 153.924577c24.692387 0 44.612038-19.975921 44.612038-44.550653 0-24.702618-19.919651-44.668309-44.612038-44.668309-24.712849 0-44.678539 19.96569-44.678539 44.668309C257.530805 133.948655 277.496496 153.924577 302.204229 153.924577z" fill="#F3C9C8" p-id="25565"></path><path d="M338.033001 305.398842 338.033001 222.01152l91.04007 30.02271c1.872263 0.64455 3.749642 0.905439 5.642367 0.905439 7.51463 0 14.527943-4.736928 17.029409-12.312943 3.079515-9.397124-2.020612-19.515529-11.427966-22.641083L317.883153 177.660371c-2.020612-0.966824-4.184457-1.488603-6.389226-2.133152l-3.68314-1.166328c-0.54224-0.199503-1.104942-0.071617-1.601143-0.199503-1.3556-0.322275-2.624238-0.521778-4.020762-0.521778-1.416986 0-2.726547 0.199503-4.082147 0.521778-0.501316 0.127887-0.977055 0-1.519295 0.199503l-3.621755 1.166328c-2.225231 0.64455-4.394191 1.166328-6.49665 2.133152l-122.392802 40.325272c-9.41247 3.125554-14.55352 13.238844-11.433082 22.641083 2.496351 7.581131 9.514779 12.312943 17.029409 12.312943 1.851801 0 3.724064-0.260889 5.601443-0.905439L266.354996 222.01152l0 83.387322c-0.102309 0.460393-0.434815 0.716166-0.501316 1.166328l-32.375827 180.008373c-1.769954 9.734745 4.685773 19.070483 14.451211 20.819974 1.064018 0.122771 2.122921 0.250658 3.18694 0.250658 8.512147 0 16.072816-6.092528 17.633035-14.706984l26.733461-148.696564c2.27127 0.455277 4.332805 1.360716 6.726847 1.360716 2.373579 0 4.455577-0.905439 6.680807-1.360716l26.728345 148.696564c1.601143 8.619572 9.161812 14.706984 17.653497 14.706984 1.038441 0 2.102459-0.127887 3.18694-0.250658 9.73986-1.749492 16.216049-11.08523 14.446095-20.819974L338.534317 306.56517C338.45247 306.120124 338.140426 305.782502 338.033001 305.398842z" fill="#F3C9C8" p-id="25566"></path></svg>