<?xml version="1.0" standalone="no"?><!DOCTYPE svg PUBLIC "-//W3C//DTD SVG 1.1//EN" "http://www.w3.org/Graphics/SVG/1.1/DTD/svg11.dtd"><svg t="1736261609252" class="icon" viewBox="0 0 1080 1024" version="1.1" xmlns="http://www.w3.org/2000/svg" p-id="33191" xmlns:xlink="http://www.w3.org/1999/xlink" width="527.34375" height="500"><path d="M1080.7925 493.811167v125.379419c0 33.108358-22.072239 54.896161-55.635695 54.896161h-44.229809c-14.221803 0.284436-27.960066-5.119849-38.029103-15.075111a51.198492 51.198492 0 0 1-15.30266-37.545561c0-45.651989-0.483541-91.247091 0-136.643088a363.964394 363.964394 0 0 0-34.217659-158.715327C830.886969 192.593369 726.299827 109.253601 580.071243 80.895325c-192.676993-37.3749-387.686363 63.71368-468.921304 240.917351-80.978949 177.601882-27.163645 386.861498 129.788179 504.788692a438.031547 438.031547 0 0 0 129.759735 67.212243c3.612338 1.763504 7.96421 1.052413 10.80857-1.820391a59.902236 59.902236 0 0 1 40.617471-14.989781c52.819778 0 105.611113-0.483541 158.629996 0 34.331434-0.142218 62.405274 26.964539 63.002589 60.869319 0.853308 12.884954 0.170662 25.826795-1.991052 38.569531a60.698657 60.698657 0 0 1-57.968071 47.216388c-54.839274 0.455098-109.934541 0.455098-164.97292 0a61.893289 61.893289 0 0 1-58.593831-50.003861 10.72324 10.72324 0 0 0-8.390864-9.244173c-140.596749-45.395997-244.785681-133.485847-306.963406-266.317491a488.2914 488.2914 0 0 1 21.105156-449.010779C145.566704 111.443759 287.24431 19.940675 446.869832 3.073616c221.860134-24.347728 433.338352 98.869978 519.095827 302.412429a10.808571 10.808571 0 0 0 12.202307 7.793548 614.808564 614.808564 0 0 1 52.506898 0c28.38672 0.881752 50.800282 24.148622 50.288297 52.194019v128.166893l-0.170661 0.142218z" fill="#228e77" p-id="33192"></path><path d="M323.168585 473.161108c-37.261125-0.284436-67.240687-29.865787-67.070025-66.216717 0.170662-36.35093 30.463103-65.704732 67.695785-65.590958 37.261125 0.085331 67.411348 29.581351 67.411348 65.903838 0.028444 17.578149-7.110902 34.416764-19.910525 46.818177a68.264657 68.264657 0 0 1-48.126583 19.057216zM768.083485 407.826143a66.188273 66.188273 0 0 1-42.096538 61.068424 69.061078 69.061078 0 0 1-73.953378-14.676901 64.993642 64.993642 0 0 1-14.250247-72.246762 67.89489 67.89489 0 0 1 63.031033-40.446809c17.947916 0 35.156298 7.025571 47.785259 19.455427 12.657405 12.4583 19.654532 29.325359 19.483871 46.846621z m-256.788883 445.426885h-98.158888c-5.574947 0-11.036119-1.479068-15.814645-4.294985a9.898375 9.898375 0 0 1-5.745609-8.931293c0-3.811443 2.247045-7.281563 5.745609-8.931292 4.380315-2.588368 9.38639-4.067436 14.506239-4.238098h199.332798c5.119849 0.142218 10.154368 1.592842 14.563126 4.266541 3.498564 1.621286 5.745609 5.119849 5.745609 8.902849a9.898375 9.898375 0 0 1-5.745609 8.931293c-4.835413 2.815917-10.381917 4.266541-16.042194 4.266541-32.681704 0.227549-65.790063 0-98.386436 0z" fill="#228e77" p-id="33193"></path></svg>