<svg t="1736231157416" class="icon" viewBox="0 0 1139 1024" version="1.1" xmlns="http://www.w3.org/2000/svg" p-id="24364" width="200" height="200"><path d="M480.248944 337.539898a70.102689 70.102689 0 0 1 44.383196-41.424317 151.130473 151.130473 0 0 1 115.054902 28.905979l4.438319 3.414092c2.162258 1.934652 4.43832 3.641698 6.714381 5.576351 2.845077 0 5.690153 0 8.421427 0.569015s7.738609 0.569015 11.380307 0.682818l6.372972 0.682819a267.209602 267.209602 0 0 1 30.954434 8.990442c84.100467-28.792176 144.302289-70.671705 166.9491-118.696599v-33.571905C875.259391 85.69371 678.038675 0.227606 437.572794 0.227606S2.276061 85.69371 2.276061 192.668593v30.954434C45.521227 325.931985 216.225828 385.450989 437.572794 385.450989c13.428762 0 26.629918 0 39.71727-0.796621a72.037342 72.037342 0 0 1 2.95888-47.11447z" fill="#1890FF" p-id="24365"></path><path d="M858.644143 448.953101a120.176039 120.176039 0 0 0 14.339187-25.60569V278.2485a214.06357 214.06357 0 0 1-104.812625 95.025561 475.696822 475.696822 0 0 1 52.69082 38.806846 502.099133 502.099133 0 0 1 37.782618 36.872194zM557.63503 547.392754a562.528562 562.528562 0 0 1-24.012447-61.681263 131.214937 131.214937 0 0 1-3.641698-13.087352c0-1.593243-0.796621-3.186486-1.251834-4.665926a154.885975 154.885975 0 0 0-16.273839-22.760614c-2.617471-3.641698-4.09691-5.348744-5.57635-7.283396-22.760613 1.707046-46.431651 2.503667-69.647477 2.617471C218.843299 440.076461 35.847966 368.721938 0 275.858635v152.268504c42.789953 90.359635 221.233163 159.324294 435.296733 159.324295a950.255612 950.255612 0 0 0 140.432985-10.356079A230.678818 230.678818 0 0 1 557.63503 547.392754z" fill="#1890FF" p-id="24366"></path><path d="M563.894199 633.996888a938.192487 938.192487 0 0 1-126.321405 8.307624c-214.06357 0-394.896644-68.964659-435.296733-159.324294v147.943987c40.400089 90.359635 218.843299 159.324294 435.296733 159.324295a934.550789 934.550789 0 0 0 160.348522-13.883975c-3.072683-3.755501-6.031563-7.738609-8.762836-11.380306a212.925539 212.925539 0 0 1-25.264281-130.532119z" fill="#1890FF" p-id="24367"></path><path d="M703.871972 802.084019a852.612581 852.612581 0 0 1-266.299178 40.286286c-214.06357 0-394.896644-69.078462-435.296733-159.324295v140.091576c0 110.275172 195.058457 199.838186 437.686597 199.838186 198.586353 0 365.08024-58.949989 419.136697-141.571015l-23.671038-6.941987a295.887975 295.887975 0 0 1-131.556345-72.378751zM1068.383196 868.431207c-25.719493-20.598355-42.903756-21.850189-48.366303-37.441209l-0.910425-0.796622c5.234941 5.348744 35.506557-12.745944 41.424317-15.022005a88.766393 88.766393 0 0 1 32.66148-5.462547c2.389864 0 14.225383 2.95888 16.046232 1.47944 4.324517-3.755501-3.641698-13.542565-5.690153-16.387642a99.122472 99.122472 0 0 0-14.11158-12.63214A367.583908 367.583908 0 0 0 978.706379 710.700156a53.601245 53.601245 0 0 1-31.751056-29.816404c-7.852412-14.566793-13.542565-30.385419-20.598355-45.521227a890.05379 890.05379 0 0 0-39.375861-87.742165 461.471438 461.471438 0 0 0-91.042454-106.633474 435.865748 435.865748 0 0 0-56.901534-41.651923 223.964437 223.964437 0 0 0-68.28184-26.288508c-10.583685 0-20.712158-1.593243-31.52345-1.593243a163.193599 163.193599 0 0 1-19.346521-14.680596c-24.12625-15.477217-85.807513-48.138697-103.560791-4.665926-11.380307 27.426539 16.842854 54.284063 26.516114 68.281841a200.407202 200.407202 0 0 1 21.963992 31.523449c2.95888 7.283396 3.641698 14.680596 6.714381 22.760614a499.36786 499.36786 0 0 0 21.963992 56.901534A194.717048 194.717048 0 0 0 609.074016 557.63503c3.641698 4.665926 9.559458 6.828184 11.380307 14.339186a118.924205 118.924205 0 0 0-9.673261 31.52345 183.450545 183.450545 0 0 0 12.176929 141.34341c6.714381 10.469882 22.760613 34.14092 44.15559 24.809068 18.891309-7.624806 14.566793-31.637253 20.256946-52.577017 1.251834-5.007335 0-8.421427 2.845076-11.380306v0.113803c6.372972 11.380307 11.380307 22.760613 17.298067 34.937541 25.150478 54.397866 87.059347 81.824405 140.546788 97.870638 38.010224 11.380307 76.248055 21.053567 113.120249 35.392754 24.581463 9.559458 62.477884 23.784841 96.391198 36.530785 39.375861 14.566793 68.28184 24.240053 72.833963 27.08513a61.795066 61.795066 0 0 1 7.966215 5.462547c0-11.380307-25.150478-39.375861-68.281841-74.085797zM666.772172 446.677039a16.842854 16.842854 0 0 1-25.150478-14.680595 16.729051 16.729051 0 0 1 8.421427-14.566793 16.387642 16.387642 0 0 1 16.729051 0 16.729051 16.729051 0 0 1 8.421427 14.566793 16.956657 16.956657 0 0 1-8.421427 14.680595z" fill="#1890FF" p-id="24368"></path></svg>