<svg t="1736233640488" class="icon" viewBox="0 0 1024 1024" version="1.1" xmlns="http://www.w3.org/2000/svg" p-id="37023" width="200" height="200"><path d="M1024 910.222222a113.777778 113.777778 0 0 1-113.777778 113.777778H113.777778a113.777778 113.777778 0 0 1-113.777778-113.777778V113.777778a113.777778 113.777778 0 0 1 113.777778-113.777778h796.444444a113.777778 113.777778 0 0 1 113.777778 113.777778v796.444444z" fill="#3B88C3" p-id="37024"></path><path d="M306.545778 265.728c0-42.325333 23.808-68.778667 67.925333-68.778667h155.221333c135.822222 0 219.591111 60.871111 219.591112 199.310223 0 97.024-73.187556 152.576-163.157334 166.684444l149.959111 160.540444c12.316444 13.226667 17.607111 26.453333 17.607111 38.798223 0 34.389333-27.335111 67.896889-66.104888 67.896889-15.900444 0-37.063111-6.172444-51.171556-22.926223l-195.783111-237.255111h-1.763556v191.374222c0 44.117333-28.216889 68.778667-66.161777 68.778667s-66.161778-24.661333-66.161778-68.778667V265.728z m132.295111 209.009778h90.823111c48.497778 0 82.033778-29.098667 82.033778-78.478222 0-50.261333-33.564444-77.624889-82.033778-77.624889h-90.823111v156.103111z" fill="#FFFFFF" p-id="37025"></path></svg>