<svg t="1736239058306" class="icon" viewBox="0 0 1029 1024" version="1.1" xmlns="http://www.w3.org/2000/svg" p-id="45299" width="200" height="200"><path d="M697.950249 5.094527H331.144279C151.307463 5.094527 5.094527 151.307463 5.094527 331.144279v366.80597c0 179.836816 146.212935 326.049751 326.049752 326.049751h366.80597c179.836816 0 326.049751-146.212935 326.049751-326.049751V331.144279c0-179.836816-146.212935-326.049751-326.049751-326.049752z m129.400995 743.291543c0 11.20796-9.170149 20.378109-20.37811 20.378109H221.61194c-11.20796 0-20.378109-9.170149-20.378109-20.378109v-81.512438c0-11.20796 9.170149-20.378109 20.378109-20.37811h585.361194c11.20796 0 20.378109 9.170149 20.37811 20.37811v81.512438z m0-216.517413c0 11.20796-9.170149 20.378109-20.37811 20.378109H221.61194c-11.20796 0-20.378109-9.170149-20.378109-20.378109v-81.512438c0-11.20796 9.170149-20.378109 20.378109-20.37811h585.361194c11.20796 0 20.378109 9.170149 20.37811 20.37811v81.512438z m-48.907463-203.781095c-28.0199 0-50.945274-22.925373-50.945274-50.945273s22.925373-50.945274 50.945274-50.945274 50.945274 22.925373 50.945274 50.945274-22.41592 50.945274-50.945274 50.945273z" fill="#DD6572" p-id="45300"></path></svg>