<?xml version="1.0" standalone="no"?><!DOCTYPE svg PUBLIC "-//W3C//DTD SVG 1.1//EN" "http://www.w3.org/Graphics/SVG/1.1/DTD/svg11.dtd"><svg t="1736327028337" class="icon" viewBox="0 0 1024 1024" version="1.1" xmlns="http://www.w3.org/2000/svg" p-id="13776" xmlns:xlink="http://www.w3.org/1999/xlink" width="500" height="500"><path d="M240.458845 535.836127l160.941527 107.929981h221.199256l138.440223-109.455493v-84.665922h63.69013V345.90987l-65.59702-166.28082H249.23054L198.888641 345.90987v100.302421h41.570204v89.623836z" fill="#FFC998" p-id="13777"></path><path d="M622.599628 685.336313v-41.570205h-221.199256v41.570205l110.599628 45.383985 110.599628-45.383985z" fill="#F1B875" p-id="13778"></path><path d="M871.639479 1024v-131.194041l-46.52812-143.779516-202.511731-63.69013-110.599628 45.383985-110.599628-45.383985-202.511731 63.69013L152.360521 892.805959v131.194041h719.278958z" fill="#FFA358" p-id="13779"></path><path d="M350.677095 358.876723h61.020484v83.140409H350.677095z" fill="#59312A" p-id="13780"></path><path d="M343.049534 482.061825h76.275606a59.113594 59.113594 0 0 0 58.732216-58.732216V377.564246A59.113594 59.113594 0 0 0 419.32514 318.450652H343.049534A59.113594 59.113594 0 0 0 285.080074 377.564246v45.765363A59.113594 59.113594 0 0 0 343.049534 482.061825zM295.377281 377.564246A48.435009 48.435009 0 0 1 343.049534 328.747858h76.275606A48.435009 48.435009 0 0 1 467.378771 377.564246v45.765363A48.435009 48.435009 0 0 1 419.32514 471.38324H343.049534a48.435009 48.435009 0 0 1-48.435009-48.435009z" fill="#59312A" p-id="13781"></path><path d="M602.005214 482.061825h76.275605a59.113594 59.113594 0 0 0 58.732216-58.732216V377.564246a59.113594 59.113594 0 0 0-58.732216-58.732216h-76.275605a58.732216 58.732216 0 0 0-58.732216 58.732216v45.765363a58.732216 58.732216 0 0 0 58.732216 58.732216zM553.570205 377.564246a48.435009 48.435009 0 0 1 48.435009-48.43501h76.275605A48.435009 48.435009 0 0 1 724.427561 377.564246v45.765363a48.435009 48.435009 0 0 1-48.43501 48.435009h-76.275605a48.435009 48.435009 0 0 1-48.435009-48.435009z" fill="#59312A" p-id="13782"></path><path d="M608.870019 358.876723h61.020484v83.140409h-61.020484zM741.97095 0H282.02905L198.888641 99.539665v246.370205h48.435009V295.56797l41.570205-67.50391H327.794413l107.167226 79.708007 263.913594-6.102048 75.894227-33.561267v77.801118h49.960521V99.539665L741.97095 0zM495.219367 387.098696h30.128864l19.831657 17.162012 6.483427-8.008939-22.501304-19.450279h-37.756424l-22.501304 19.450279 6.864805 8.008939 19.450279-17.162012z" fill="#59312A" p-id="13783"></path><path d="M401.400372 685.336313l43.095717 338.663687h126.236127l51.867412-338.663687-110.599628 45.383985-110.599628-45.383985z" fill="#FFFFFF" p-id="13784"></path><path d="M871.639479 892.805959l-46.52812-143.779516-40.42607 274.973557h86.95419v-131.194041zM198.888641 749.026443L152.360521 892.805959v131.194041h86.95419l-40.42607-274.973557z" fill="#E0843F" p-id="13785"></path><path d="M636.329236 899.670764h103.734824v62.164618h-103.734824z" fill="#FFFFFF" p-id="13786"></path><path d="M677.899441 886.322533h20.594414v17.543389h-20.594414z" fill="#EDEDED" p-id="13787"></path></svg>