<svg t="1736232445128" class="icon" viewBox="0 0 1024 1024" version="1.1" xmlns="http://www.w3.org/2000/svg" p-id="60261" width="256" height="256"><path d="M769.749333 135.552c95.573333 16.298667 122.837333 81.877333 121.301334 150.485333V284.586667l-43.221334 566.016-560.298666 38.272h0.341333c-46.634667-1.877333-150.101333-6.442667-155.050667-151.253334l51.925334-94.805333 105.045333 244.906667 89.472-288.853334-1.92 0.384 0.768-0.768 292.266667 93.269334L594.986667 396.8l278.613333-17.450667-219.477333-179.712 115.626666-64.426666v0.384M132.821333 736.085333v0.725334-0.725334M295.082667 293.290667c112.213333-111.872 257.408-177.834667 313.173333-121.344 55.338667 55.722667-3.072 192.981333-115.285333 304.426666-113.749333 111.488-256.64 181.248-312.405334 125.141334-55.722667-56.490667 1.536-196.778667 114.133334-308.224z" fill="#F44336" p-id="60262"></path></svg>