<svg t="1736233497272" class="icon" viewBox="0 0 1024 1024" version="1.1" xmlns="http://www.w3.org/2000/svg" p-id="29846" width="200" height="200"><path d="M25.6 649.0624v174.5664C25.6 934.7328 197.5552 1024 409.6 1024c212.0448 0 384-89.2672 384-200.3712v-174.592H25.6z" fill="#99C9F2" p-id="29847"></path><path d="M25.6 649.0624c0 110.6688 171.9296 200.3712 384 200.3712 212.0704 0 384-89.7024 384-200.3712s-171.9296-200.3968-384-200.3968c-212.0704 0-384 89.728-384 200.3968z" fill="#E0EFFB" p-id="29848"></path><path d="M25.6 424.704v174.592c0 110.6432 171.9552 200.3712 384 200.3712 212.0448 0 384-89.728 384-200.3968v-174.5408H25.6z" fill="#99C9F2" p-id="29849"></path><path d="M25.6 424.704c0 110.6944 171.9296 200.3968 384 200.3968 212.0704 0 384-89.7024 384-200.3712s-171.9296-200.3968-384-200.3968c-212.0704 0-384 89.728-384 200.3968z" fill="#E0EFFB" p-id="29850"></path><path d="M25.6 200.3712v174.592c0 110.6432 171.9552 200.3712 384 200.3712 212.0448 0 384-89.728 384-200.3968V200.3712H25.6z" fill="#99C9F2" p-id="29851"></path><path d="M25.6 200.3712c0 110.6688 171.9296 200.3968 384 200.3968 212.0704 0 384-89.728 384-200.3968S621.6704 0 409.6 0C197.5296 0 25.6 89.7024 25.6 200.3712z" fill="#E0EFFB" p-id="29852"></path><path d="M409.6 742.4h588.8v204.8H409.6z" fill="#5CA8EA" p-id="29853"></path></svg>