<svg t="1736233588586" class="icon" viewBox="0 0 1024 1024" version="1.1" xmlns="http://www.w3.org/2000/svg" p-id="32969" width="200" height="200"><path d="M756.224 159.232l-122.368-70.656L512 18.432 390.144 88.576 267.776 159.232 145.92 229.888V793.6l121.856 70.656 122.368 70.656v0.512l121.856 70.656 121.856-70.656v-0.512l122.368-70.656 121.856-70.656V229.888l-121.856-70.656z m0 282.112l-122.368-70.656L512 300.544 390.144 370.688 512 441.344l121.856 70.656 122.368 70.656v140.8L633.856 793.6v0.512L512 864.768l-121.856-70.656v-0.512l-122.368-70.656v-140.8l122.368 70.656 121.856 70.656 121.856-70.656-121.856-70.656L390.144 512 267.776 441.344V300.544l122.368-70.656L512 159.232l121.856 70.656 122.368 70.656v140.8z" fill="#AF1F24" p-id="32970"></path></svg>