<?xml version="1.0" standalone="no"?><!DOCTYPE svg PUBLIC "-//W3C//DTD SVG 1.1//EN" "http://www.w3.org/Graphics/SVG/1.1/DTD/svg11.dtd"><svg t="1736262255374" class="icon" viewBox="0 0 1024 1024" version="1.1" xmlns="http://www.w3.org/2000/svg" p-id="20194" xmlns:xlink="http://www.w3.org/1999/xlink" width="500" height="500"><path d="M724.352 250.368l-12.8-156.48c0-5.12 0-11.52-5.12-16.64-11.52-16.64-28.16-16.64-39.68-5.12L543.872 177.28a327.04 327.04 0 0 1 180.48 73.088zM478.592 176L355.84 70.848c-5.12-5.12-11.52-5.12-16.64-5.12-11.52 0-28.16 11.52-28.16 28.16l-14.08 156.48A342.272 342.272 0 0 1 478.72 176z m368.64 303.936l104.96-123.136c5.12-5.12 5.12-11.52 5.12-16.64 0-11.52-11.52-28.224-28.16-28.224l-156.16-12.8a327.68 327.68 0 0 1 74.24 180.8z m-671.872 0a327.68 327.68 0 0 1 75.52-182.144l-156.16 12.8c-5.12 0-11.52 0-16.64 5.184-11.52 11.52-16.64 28.16-5.12 39.744L175.36 480zM802.432 512c0-160.32-131.84-292.416-291.84-292.416C350.72 219.584 218.88 351.68 218.88 512s131.84 292.416 291.776 292.416c161.28 0 291.776-132.096 291.776-292.416z m149.76 155.2L847.168 544a327.68 327.68 0 0 1-75.52 182.08l156.16-12.8c5.12 0 11.52 0 16.64-5.12 19.2-12.8 19.2-30.784 7.68-41.024zM175.36 544L70.4 667.2c-6.4 5.12-6.4 10.24-6.4 16.64 0 11.52 11.52 28.224 28.16 28.224l156.16 12.8a335.936 335.936 0 0 1-72.96-180.8z m367.232 304l122.88 105.088c5.12 5.12 11.52 5.12 16.64 5.12 11.52 0 28.16-11.52 28.16-28.16l14.08-156.48a338.176 338.176 0 0 1-181.76 74.368zM296.96 773.568l14.08 156.48c0 5.12 0 11.52 5.12 16.64 11.52 16.64 28.16 16.64 39.68 5.12l122.88-105.152a330.944 330.944 0 0 1-181.76-73.088z" fill="#FEF57A" p-id="20195"></path></svg>