<?xml version="1.0" standalone="no"?><!DOCTYPE svg PUBLIC "-//W3C//DTD SVG 1.1//EN" "http://www.w3.org/Graphics/SVG/1.1/DTD/svg11.dtd"><svg t="1736262273771" class="icon" viewBox="0 0 1886 1024" version="1.1" xmlns="http://www.w3.org/2000/svg" p-id="22286" xmlns:xlink="http://www.w3.org/1999/xlink" width="920.8984375" height="500"><path d="M943.295803 632.008188A567.025589 567.025589 0 0 0 1502.984647 58.693961a58.693961 58.693961 0 0 0-58.693961-55.549642H442.300921a58.693961 58.693961 0 0 0-58.693961 58.693961A567.025589 567.025589 0 0 0 943.295803 632.008188zM943.295803 723.193449a58.693961 58.693961 0 0 0-58.693961 57.645855v185.514841a58.693961 58.693961 0 0 0 58.693961 57.645855 58.693961 58.693961 0 0 0 58.693962-57.645855V780.839304A58.693961 58.693961 0 0 0 943.295803 723.193449zM406.665302 527.197544L275.651996 659.258956a58.693961 58.693961 0 0 0 0 82.800409 58.693961 58.693961 0 0 0 82.800409 0l131.013306-131.013306a58.693961 58.693961 0 0 0 0-82.800409 58.693961 58.693961 0 0 0-82.800409-1.048106zM1643.430911 119.484135h185.514841A58.693961 58.693961 0 0 0 1886.591607 60.790174a58.693961 58.693961 0 0 0-57.645855-57.645855h-185.514841a58.693961 58.693961 0 0 0-57.645855 58.693961 58.693961 58.693961 0 0 0 57.645855 57.645855zM1479.926305 527.197544a58.693961 58.693961 0 0 0-82.800409 0 58.693961 58.693961 0 0 0 0 82.800409l131.013306 131.013306a58.693961 58.693961 0 0 0 82.800409 0 58.693961 58.693961 0 0 0 0-82.800409zM57.645855 119.484135h185.514841a58.693961 58.693961 0 0 0 57.645855-58.693961 58.693961 58.693961 0 0 0-57.645855-57.645855H57.645855A58.693961 58.693961 0 0 0 0 60.790174a58.693961 58.693961 0 0 0 57.645855 58.693961z" fill="#f4ea2a" p-id="22287"></path></svg>