<?xml version="1.0" standalone="no"?><!DOCTYPE svg PUBLIC "-//W3C//DTD SVG 1.1//EN" "http://www.w3.org/Graphics/SVG/1.1/DTD/svg11.dtd"><svg t="1736262236941" class="icon" viewBox="0 0 1024 1024" version="1.1" xmlns="http://www.w3.org/2000/svg" p-id="18274" xmlns:xlink="http://www.w3.org/1999/xlink" width="500" height="500"><path d="M209.408 614.37l-96.075 96.105 81.77 81.77 95.92400001-95.865a381.803 381.803 0 0 1-81.61900001-82.01zM142.035 451.403c-2.952-18.823-4.427-38.189-4.427-57.826 0-19.606 1.505-38.972 4.427-57.825l-136.011 0L6.024 451.403l136.01 0zM454.174 764.777L454.17400001 899.554 569.82599999 899.554l1e-8-134.355c-18.402 2.801-37.19500001 4.247-56.38 4.277-20.15 0-39.936-1.627-59.272-4.699zM734.208 697.585l94.66 94.65999999 81.76999999-81.76999999-94.41999999-94.449c-22.98 31.202-50.658 58.76-82.01 81.559zM889.314 393.577c0 19.697-1.506 38.973-4.45799999 57.826L1017.976 451.403l0-115.651-133.11999999 0c2.952 18.853 4.458 38.159 4.45799999 57.825zM796.642 335.33l-566.423 0c-3.885 18.823-5.903 38.31-5.903 58.278 0 159.412 129.687 289.16 289.13000001 289.16 159.382 0 289.099-129.718 289.09899999-289.16 0-19.968-2.018-39.455-5.903-58.278zM121.163 244.917l783.06 0c33.249 0 60.234-26.986 60.234-60.23600001s-26.98500001-60.235-60.235-60.235l-783.05899999 1e-8c-33.24999999 0-60.235 26.986-60.23500001 60.235s26.985 60.236 60.235 60.236z" fill="#f4ea2a" p-id="18275"></path></svg>