<?xml version="1.0" standalone="no"?><!DOCTYPE svg PUBLIC "-//W3C//DTD SVG 1.1//EN" "http://www.w3.org/Graphics/SVG/1.1/DTD/svg11.dtd"><svg t="1736262192130" class="icon" viewBox="0 0 1024 1024" version="1.1" xmlns="http://www.w3.org/2000/svg" p-id="16084" xmlns:xlink="http://www.w3.org/1999/xlink" width="500" height="500"><path d="M505.514667 448.512a269.994667 269.994667 0 0 1 266.24 273.066667H238.933333v-11.264a269.994667 269.994667 0 0 1 266.24-260.778667zM192.853333 365.226667l71.68 73.728a24.234667 24.234667 0 0 1 6.144 23.210666 23.210667 23.210667 0 0 1-16.384 16.725334 22.186667 22.186667 0 0 1-22.528-6.144l-71.68-73.728a24.234667 24.234667 0 0 1 0-34.133334 21.504 21.504 0 0 1 16.384-7.168 21.845333 21.845333 0 0 1 16.384 7.168z m657.749334 0a24.234667 24.234667 0 0 1 0 34.133333l-71.68 73.728a22.186667 22.186667 0 0 1-22.528 6.144 23.210667 23.210667 0 0 1-16.384-16.725333 24.234667 24.234667 0 0 1 6.144-23.210667L819.2 365.226667a21.845333 21.845333 0 0 1 16.384-7.168 21.504 21.504 0 0 1 16.384 7.168z m145.066666 329.728a24.576 24.576 0 0 1-23.893333 23.893333h-102.4a22.186667 22.186667 0 0 1-20.138667-11.264 23.210667 23.210667 0 0 1 0-23.552 24.234667 24.234667 0 0 1 20.48-12.288h102.4a22.186667 22.186667 0 0 1 23.210667 23.210667z m-817.152 0a24.576 24.576 0 0 1-23.893333 23.893333h-102.4a22.869333 22.869333 0 0 1-20.48-11.264 24.234667 24.234667 0 0 1 0-23.552 25.258667 25.258667 0 0 1 20.821333-12.288h102.4a21.504 21.504 0 0 1 16.384 6.485333 23.893333 23.893333 0 0 1 6.826667 16.725334z m326.997334-465.237334a23.552 23.552 0 0 1 23.210666 23.893334v92.501333a23.893333 23.893333 0 0 1-23.210666 24.234667 24.917333 24.917333 0 0 1-16.725334-7.168 22.869333 22.869333 0 0 1-6.485333-17.066667V253.610667a23.552 23.552 0 0 1 23.210667-23.893334z m0 0" fill="#FEF57A" p-id="16085"></path><path d="M238.933333 756.736m18.773334 0l495.957333 0q18.773333 0 18.773333 18.773333l0-0.341333q0 18.773333-18.773333 18.773333l-495.957333 0q-18.773333 0-18.773334-18.773333l0 0.341333q0-18.773333 18.773334-18.773333Z" fill="#FEF57A" p-id="16086"></path></svg>