<?xml version="1.0" standalone="no"?><!DOCTYPE svg PUBLIC "-//W3C//DTD SVG 1.1//EN" "http://www.w3.org/Graphics/SVG/1.1/DTD/svg11.dtd"><svg t="1736262298111" class="icon" viewBox="0 0 1024 1024" version="1.1" xmlns="http://www.w3.org/2000/svg" p-id="24174" xmlns:xlink="http://www.w3.org/1999/xlink" width="500" height="500"><path d="M576 288c104.32 0 198.656 61.248 239.04 152.128 104.064 33.856 176.96 129.344 176.96 236.992 0 23.552-3.392 46.912-10.112 69.376-29.248 97.408-119.296 169.6-224.128 179.52-25.408 1.152-103.68 1.984-181.824 1.984-78.208 0-156.288-0.832-181.632-2.496-133.632-12.16-234.304-119.168-234.304-248.384 0-16.96 1.792-33.536 5.248-49.664 141.056 6.848 243.328-26.304 306.752-99.456 57.344-66.048 87.68-145.92 91.072-239.616z" fill="#f4ea2a" p-id="24175"></path><path d="M256.576 96C381.888 106.56 480 202.496 480 319.488 480 443.456 369.664 544 233.6 544 156.544 544 77.184 511.744 32 461.312c7.552 0.64 25.856 1.024 33.6 1.024 136.064 0 246.4-100.48 246.4-224.512 0-53.76-20.8-103.168-55.424-141.824" fill="#f4ea2a" p-id="24176"></path></svg>