<?xml version="1.0" standalone="no"?><!DOCTYPE svg PUBLIC "-//W3C//DTD SVG 1.1//EN" "http://www.w3.org/Graphics/SVG/1.1/DTD/svg11.dtd"><svg t="1736261019711" class="icon" viewBox="0 0 1024 1024" version="1.1" xmlns="http://www.w3.org/2000/svg" p-id="11866" xmlns:xlink="http://www.w3.org/1999/xlink" width="500" height="500"><path d="M889.44 806.24H134.24A70.88 70.88 0 0 1 64 736V216.16a70.88 70.88 0 0 1 70.24-70.88h755.2A70.88 70.88 0 0 1 960 216.16V736a71.04 71.04 0 0 1-70.88 70.88zM134.24 192a23.68 23.68 0 0 0-23.68 23.68V736a23.68 23.68 0 0 0 23.68 23.68h755.2a24.48 24.48 0 0 0 16-6.88 23.68 23.68 0 0 0 6.88-16V216.16A23.52 23.52 0 0 0 889.6 192zM784 878.72H251.04a1.76 1.76 0 0 1-1.44-1.44v-50.56a1.76 1.76 0 0 1 1.44-1.44H784a1.44 1.44 0 0 1 1.44 1.44v50.56a1.44 1.44 0 0 1-1.44 1.44z m0 0" fill="#2B81C4" p-id="11867"></path><path d="M705.28 571.84a23.36 23.36 0 0 1-20-10.88L558.24 360a23.52 23.52 0 0 1 39.84-25.12l127.04 200.8a23.52 23.52 0 0 1-7.36 32 22.72 22.72 0 0 1-12.48 3.68z m-67.84 105.44H373.12a23.68 23.68 0 0 1 0-48h264.32a23.68 23.68 0 0 1 0 48z m-304-105.44a23.52 23.52 0 0 1-20-36.32L430.4 350.4a23.68 23.68 0 0 1 40.96 1.6 23.2 23.2 0 0 1-1.12 23.68l-117.28 185.28a23.84 23.84 0 0 1-19.84 11.04z m0 0" fill="#2B81C4" p-id="11868"></path><path d="M514.88 410.24a94.56 94.56 0 1 1 94.4-94.4 94.56 94.56 0 0 1-94.4 94.4z m0-141.44a48 48 0 1 0 48 47.2 47.04 47.04 0 0 0-48-47.2zM302.4 718.4a94.56 94.56 0 1 1 94.4-94.4 94.4 94.4 0 0 1-94.4 94.4z m0-141.76a48 48 0 1 0 48 48 48 48 0 0 0-48-48z m418.88 141.76A94.56 94.56 0 1 1 816 624a94.4 94.4 0 0 1-94.56 94.4z m0-141.76a48 48 0 1 0 48 48 47.2 47.2 0 0 0-48-48z m0 0" fill="#2B81C4" p-id="11869"></path></svg>