<?xml version="1.0" standalone="no"?><!DOCTYPE svg PUBLIC "-//W3C//DTD SVG 1.1//EN" "http://www.w3.org/Graphics/SVG/1.1/DTD/svg11.dtd"><svg t="1736327065931" class="icon" viewBox="0 0 1024 1024" version="1.1" xmlns="http://www.w3.org/2000/svg" p-id="17792" xmlns:xlink="http://www.w3.org/1999/xlink" width="500" height="500"><path d="M56.448285 1023.99936C25.280304 1023.99936 0.00032 999.743375 0.00032 969.855394c0-189.823881 131.199918-361.727774 328.959794-434.431729-70.591956-57.599964-111.99993-142.527911-111.99993-231.679855C216.960184 136.319915 359.040096 0 533.759986 0c174.591891 0 316.799802 136.319915 316.799802 303.87181 0 97.279939-65.983959 184.063885-155.519902 239.80785 184.063885 58.879963 291.263818 194.687878 321.727799 407.231746a63.99996 63.99996 0 0 1-63.359961 73.087954H621.119932a59.519963 59.519963 0 0 1-0.64 0H56.448285z m438.527726-416.31974l-1.855999 0.064A341.631786 341.631786 0 0 1 480.00002 607.99962c-203.711873 0-345.599784 135.807915-381.247762 305.727809L96.00026 927.99942H895.99976c-21.311987-213.311867-149.311907-319.9998-383.99976-319.9998a636.799602 636.799602 0 0 1-17.023989-0.32z m38.719975-499.455688c-112.44793 0-203.839873 87.743945-203.839872 195.647878s91.391943 195.647878 203.839872 195.647878c112.44793 0 203.903873-87.743945 203.903873-195.647878s-91.455943-195.647878-203.903873-195.647878z" fill="#0476DA" p-id="17793"></path></svg>