<?xml version="1.0" standalone="no"?><!DOCTYPE svg PUBLIC "-//W3C//DTD SVG 1.1//EN" "http://www.w3.org/Graphics/SVG/1.1/DTD/svg11.dtd"><svg t="1736336462325" class="icon" viewBox="0 0 2752 1024" version="1.1" xmlns="http://www.w3.org/2000/svg" p-id="27508" xmlns:xlink="http://www.w3.org/1999/xlink" width="537.5" height="200"><path d="M2748.893694 313.740776c-15.798975 6.140492-252.143963 5.245004-284.701364 2.174757-5.500858-7.931469-8.571104-19.636782-14.455742-28.335813-8.890921-13.048546-15.095377-11.64135-18.037696-26.99258l311.182237 0.127927c4.733296 14.96745 10.617935 39.721309 6.012565 53.025709zM2368.183175 0.255854c71.447186-0.639635 137.13766 6.524273 200.909231 32.237584 10.809825 4.285552 16.694463 4.79726 20.084527 14.519706-56.799553 0.447744-432.712813 4.98915-444.737944-2.686466 31.022279-24.370079 172.829271-43.559117 223.744186-44.070824zM1376.301788 851.353664c-54.816686 2.686465-315.787606-5.820675-339.965795 3.13421l-9.402629 18.933184c-1.66305 20.660198-0.831525 6.332383 3.581954 12.025131l306.321014-0.383781c30.062827 0.383781 20.084527 6.140492 9.146775 28.207886-4.541406 9.018848-6.6522 21.491723-16.694463 26.544837-10.617935 5.564821-255.470063 3.198173-305.297599 2.430611-26.928617-0.383781-22.579102-4.541406-36.5871 11.577387-2.494575 10.937752-0.703598 4.221588-4.349515 11.449459l-1.471159 10.490008h329.859567l-3.645917 19.380928c-6.396346 5.372931-4.861223 6.780127-9.082811 14.903487-6.6522 12.920619-0.063963 7.675615-11.065679 12.408911l-329.987495-0.063963-957.724899-0.895489 60.125653-121.786429c18.357513-37.226734 37.994296-89.420918 65.818401-117.756732l498.978958-506.014939c11.001715-11.129642 38.761857-34.156488 41.57625-47.780705l-383.013204-0.767562C283.613986 207.945211 382.501496 30.766425 382.94924 11.129642c7.035981-6.076529 1.727013 3.070246 8.31525-10.617934h726.88077L2072.92784 0.19189c-2.110794 14.96745-11.705313 34.476305-20.340381 46.117656L1098.316587 47.268998l-6.076529 10.426044-6.396346 11.897203c-1.727013 18.997148-0.639635 6.908054 3.3261 11.769277l943.333121-0.19189c0.575671 18.165623-3.837808 7.035981-6.716164 26.225019 27.120507-6.588236 21.875504-26.6088 65.690475-26.352946l471.922414 0.127927c21.107942 0 75.796701-5.436894 88.909211 5.18104 8.50714 6.972017 39.337528 37.354661 39.465455 51.55455-77.203897 4.861223-313.293031 0.255854-408.214807 0.255853H1460.221848c-56.223882 0-388.641988-7.611652-410.773345 4.413479l-6.076529 13.432327-3.901771 13.752144 1675.330967 0.447744c5.564821 10.234154 25.13764 46.885217 16.82239 54.432906-6.46031 6.076529-1295.132156 2.622502-1512.160178 2.622501-42.791555 0-188.052575-7.099944-215.620827 3.965735-10.873788 15.990865-249.265607 255.78988-268.454645 275.170809-45.09424 45.414057-88.141649 89.740736-135.026866 136.753879-22.003431 22.195321-121.850393 128.694483-137.329551 137.009733-4.349515 7.163908-4.413479 5.692748-6.716163 16.6305l944.036719-0.639635c0.19189 13.880071-18.229586 45.350094-24.050261 55.200467z m396.765347-356.468367c-1.023415-12.984583 10.681898-44.454605 15.862939-55.136503l271.716781-0.383781c-0.895488 12.792692-14.199888 46.693326-18.933184 54.944613l-268.646536 0.575671z m259.307871 34.348378c0.447744 12.536838-3.13421 24.178188-5.245004 36.139356-3.13421 18.357513-3.773844 19.125075-23.154773 19.189038-50.978878 0.383781-224.575711 2.430612-252.847561-1.407196-0.575671-12.217021 4.349515-46.181619 11.513423-51.810404 12.920619-6.972017 239.862978-5.692748 269.733915-2.110794z m-228.029738-124.728748c1.279269-16.182756 14.775559-42.855519 22.387211-54.304979l277.857274-0.319817c-2.238721 12.792692-20.916052 41.320396-28.399777 54.241015l-271.844708 0.383781z m238.391818-89.420919c-61.021142 0-135.986318 3.901771-195.216482-0.575671 1.918904-15.15934 22.579102-41.832103 31.214169-53.40949l308.303881-0.447744c-4.861223 16.246719-4.413479 7.099944-25.32953 25.905202-40.680761 36.651063-3.645917 28.527704-118.972038 28.527703z m-612.386174 426.572321c-9.210738 19.508856-6.204456 21.491723-31.853803 21.235869-83.920061-0.895488-248.881826 4.605369-312.269616-0.895489 0.703598-10.298117 16.438609-46.5654 25.841238-52.705891 11.897204-5.948602 294.487774-3.901771 331.650544-2.302685 0.19189 15.15934-7.355798 21.875504-13.368363 34.668196z m33.005146-68.888648l-331.970362 0.447745c0.063963-11.705313 16.82239-44.134788 22.834955-54.241015 70.295843-4.861223 251.696219-1.66305 334.273047-1.087379-0.319817 12.984583-18.101659 45.09424-25.13764 54.880649z m42.535701-88.653356l-331.330727 0.063963c0.639635-13.240436 19.636782-46.821253 25.009713-55.520284l332.418106-0.255854c-0.959452 15.926902-18.29355 45.989728-26.097092 55.712175z m46.693327-90.572261l-332.865851 1.343233c-0.831525-15.926902 17.525988-47.077107 24.94575-52.961746 16.502573-7.675615 287.195939-3.262137 330.051458-2.686465 0 16.246719-14.199888 41.832103-22.131357 54.304978z m53.025709-107.650505c-9.018848 19.253002-6.140492 20.468307-31.342096 20.212454-88.333539-0.959452-239.543161 4.605369-311.438091-0.703598-0.255854-12.792692 19.125075-45.989728 24.434042-54.880649l332.86585-0.639635c-1.535123 14.583669-8.699031 23.730444-14.519705 36.011428z m34.156488-71.383222l-332.48207 0.383781c0.831525-13.752144 17.717879-43.942898 24.817823-53.793271l331.01091-0.38378c-0.831525 16.6305-15.607084 42.855519-23.346663 53.79327z m129.334118 302.994914c45.733875 0.703598 233.210778-5.117077 247.410666 3.198173 0.447744 0.639635 0.895488 1.023415 1.023416 2.174758 0.19189 1.343233 0.831525 1.790977 0.895488 2.494575l1.343233 47.396924-276.514041 0.447745c-10.042263-64.858949 11.065679-55.968028 25.841238-55.712175z m-25.13764 89.99659l282.398679 0.19189 29.423192 54.752723c-74.005724 3.709881-187.988612-0.319817-270.181658 0.255853-50.147353 0.255854-42.471738 0.639635-41.640213-55.200466z m601.000678 276.705931c-11.385496-0.127927-36.395209 10.362081-49.571682 14.519706-85.071403 27.120507-207.305577 30.31868-295.191372 17.078244-41.57625-6.076529-88.013722-30.254717-97.352387-29.679046-1.982867-15.223304 0.895488-11.257569 19.061111-11.129642 119.739599 1.407196 285.021182 3.773844 400.986936 0.19189 29.487155-0.895488 20.916052 1.151342 22.067394 9.018848z m137.585404-82.896645l-44.070824 31.022279c-22.707029 15.671048-63.451753 8.635067-93.130799 8.635067l-497.955543-0.19189c-12.984583-2.110794-46.117655-34.796123-49.123938-53.857235l694.643185-0.447744c-3.070246 13.560254 1.215306 5.692748-10.362081 14.839523z m48.42034-49.635645l-322.311879 0.063963c-141.423212 0-293.656249 5.500858-433.672265-0.383781-6.268419-9.9783-20.212454-38.697894-17.589952-54.752722l824.744865-0.447745c-0.319817 11.961167-34.156488 53.217599-51.170769 55.520285z m71.70304-88.909211l-296.982349 0.127927c3.51799-12.728729 0.703598-6.588236 10.17019-14.135925 66.202182-52.641928 20.916052-42.087957 130.357534-42.087957 63.707607 0 135.47461-3.070246 198.158801 0.38378-0.511708 8.31525-20.980015 53.60138-41.704176 55.712175z m61.91663-89.804699l-276.194224 0.19189c1.087379-12.408911 21.555686-43.2393 28.783557-55.136503l269.733915-0.319817c0.319817 16.758427-15.479158 45.350094-22.323248 55.26443z m37.994296-89.484882l-271.013184 0.703598 17.334098-55.648211 270.245622-0.19189c-0.063963 13.3044-11.705313 46.437473-16.566536 55.136503z m36.587099-127.15936c-2.110794 11.001715-5.18104 29.9349-8.69903 37.098807l-270.437513 1.535123c-2.302685-15.415194 4.413479-47.972596 10.617935-56.73559l252.591707-0.575671c18.869221 0.19189 18.869221 2.686465 15.926901 18.677331z m6.396347-52.641928l-273.69965 0.831525-1.535123-54.496869 280.223922 0.063963-4.989149 53.601381z" fill="#0F65A2" p-id="27509"></path></svg>