<?xml version="1.0" standalone="no"?><!DOCTYPE svg PUBLIC "-//W3C//DTD SVG 1.1//EN" "http://www.w3.org/Graphics/SVG/1.1/DTD/svg11.dtd"><svg t="1736336466755" class="icon" viewBox="0 0 1024 1024" version="1.1" xmlns="http://www.w3.org/2000/svg" p-id="27817" xmlns:xlink="http://www.w3.org/1999/xlink" width="200" height="200"><path d="M512 512m-512 0a512 512 0 1 0 1024 0 512 512 0 1 0-1024 0Z" fill="#1265A3" p-id="27818"></path><path d="M871.64 460.76c-4.13 1.59-66 1.35-74.53 0.56-1.45-2.05-2.24-5.08-3.79-7.32-2.32-3.38-4-3-4.72-7h81.47c1.23 3.87 2.78 10.27 1.57 13.72zM772 379.66c18.71-0.17 35.92 1.69 52.61 8.33 2.83 1.12 4.37 1.24 5.27 3.76-14.88 0.13-113.31 1.29-116.44-0.7 8.11-6.3 45.23-11.27 58.56-11.39z m-259.73 220.2c-14.35 0.7-82.67-1.49-89 0.8l-2.46 4.91c-0.44 5.33-0.21 1.63 0.94 3.11l80.19-0.1c7.87 0.1 5.26 1.59 2.39 7.29-1.18 2.35-1.73 5.56-4.37 6.88s-66.88 0.82-79.93 0.63c-7-0.09-5.91-1.18-9.58 3-0.65 2.82-0.17 1.09-1.13 3l-0.39 2.72h86.37l-1 5c-1.67 1.4-1.27 1.75-2.36 3.86-1.74 3.34 0 2-2.9 3.21h-86.36l-250.76-0.25 15.75-31.5c4.8-9.63 9.94-23.14 17.22-30.46L315.53 451c2.87-2.88 10.15-8.84 10.89-12.37l-100.28-0.19c0.05-5.05 25.94-50.89 26.06-56 1.83-1.57 0.46 0.81 2.18-2.74h190.3l250-0.08c-0.56 3.86-3.06 8.91-5.34 11.94l-249.84 0.24-1.59 2.7-1.67 3.07c-0.45 4.93-0.17 1.8 0.87 3l247-0.05c0.14 4.71-1 1.83-1.77 6.79 7.1-1.69 5.73-6.88 17.2-6.82h123.57c5.52 0 19.82-1.4 23.26 1.36 2.24 1.79 10.3 9.65 10.34 13.33-20.22 1.25-82 0.07-106.88 0.07H534.24c-14.73 0-101.75-2-107.55 1.14L425.1 420l-1 3.56 438.64 0.12c1.45 2.65 6.57 12.13 4.4 14.08-1.7 1.56-339.09 0.67-395.92 0.67-11.21 0-49.23-1.83-56.44 1-2.85 4.13-65.27 66.17-70.3 71.18-11.81 11.76-23.07 23.23-35.34 35.38-5.77 5.75-31.91 33.31-36 35.46a8.57 8.57 0 0 0-1.76 4.3l247.17-0.17c0 3.6-4.77 11.74-6.3 14.29z m103.89-92.23c-0.27-3.36 2.79-11.5 4.15-14.26l71.15-0.1c-0.25 3.3-3.72 12.08-5 14.21z m67.84 8.88c0.13 3.26-0.81 6.25-1.37 9.35-0.82 4.76-1 4.95-6 5-13.36 0.11-58.81 0.64-66.22-0.35-0.14-3.16 1.15-12 3-13.41 3.38-1.8 62.8-1.46 70.62-0.55z m-59.7-32.27c0.33-4.18 3.86-11.08 5.87-14.05l72.75-0.08c-0.59 3.32-5.48 10.7-7.44 14z m62.42-23.13c-16 0-35.61 1-51.12-0.14 0.51-3.92 5.92-10.83 8.19-13.83l80.72-0.12c-1.28 4.21-1.17 1.83-6.64 6.71-10.65 9.48-0.95 7.38-31.15 7.38zM526.43 571.48c-2.42 5-1.62 5.56-8.34 5.49-22-0.22-65.17 1.2-81.75-0.22 0.16-2.67 4.29-12.06 6.76-13.65 3.11-1.55 77.1-1 86.82-0.6 0.06 3.93-1.93 5.67-3.49 9z m8.64-17.82l-86.92 0.12c0-3 4.4-11.43 6-14 18.4-1.25 65.89-0.43 87.51-0.29-0.08 3.36-4.74 11.68-6.58 14.21z m11.14-22.94h-86.76c0.17-3.42 5.15-12.12 6.54-14.37l87-0.06c-0.26 4.13-4.8 11.91-6.83 14.42z m12.22-23.43l-87.14 0.34c-0.23-4.12 4.58-12.18 6.52-13.7 4.33-2 75.19-0.85 86.42-0.7 0 4.21-3.73 10.81-5.8 14.06z m13.89-27.86c-2.37 5-1.61 5.3-8.21 5.22-23.14-0.24-62.73 1.21-81.54-0.16-0.07-3.32 5-11.91 6.4-14.21l87.14-0.17c-0.4 3.77-2.28 6.14-3.79 9.32z m8.93-18.43l-87.05 0.09c0.22-3.56 4.64-11.37 6.5-13.91l86.66-0.11c-0.22 4.31-4.08 11.09-6.11 13.93z m33.87 78.39c12 0.17 61.06-1.33 64.78 0.82a1 1 0 0 1 0.26 0.57c0.05 0.34 0.22 0.47 0.24 0.63l0.34 12.27-72.39 0.12c-2.63-16.78 2.9-14.48 6.77-14.41z m-6.58 23.28l73.94 0.06 7.7 14.15c-19.38 1-49.22-0.07-70.74 0.07-13.14 0.07-11.11 0.17-10.9-14.28z m157.34 71.59c-3 0-9.52 2.68-13 3.76-22.27 7-54.27 7.84-77.29 4.42-10.89-1.58-23-7.82-25.48-7.68-0.53-3.93 0.22-2.92 5-2.87 31.35 0.36 74.63 1 105 0 7.73-0.24 5.48 0.29 5.77 2.32z m36-21.45l-11.54 8c-6 4.06-16.61 2.25-24.37 2.25H635.59c-3.4-0.55-12.07-9-12.87-13.93l181.87-0.13c-0.8 3.51 0.31 1.48-2.71 3.84z m12.68-12.84h-84.39c-37 0-76.88 1.43-113.54-0.1-1.65-2.58-5.29-10-4.61-14.17l216-0.12c-0.1 3.11-9 13.78-13.41 14.37z m18.76-23h-77.74c0.92-3.29 0.17-1.7 2.66-3.65 17.34-13.63 5.47-10.89 34.13-10.89 16.68 0 35.46-0.8 51.87 0.09-0.12 2.15-5.47 13.87-10.92 14.42z m16.22-23.24h-72.31c0.29-3.21 5.64-11.17 7.53-14.26l70.62-0.08c0.1 4.33-4 11.73-5.84 14.29z m9.95-23.16l-71 0.19 4.54-14.39 70.75-0.05c0 3.43-3.05 12-4.33 14.25z m9.58-32.89c-0.54 2.85-1.35 7.75-2.27 9.59l-70.81 0.41c-0.6-4 1.15-12.41 2.78-14.69l66.13-0.14c5 0.05 5 0.7 4.17 4.83z m1.7-13.68l-71.66 0.22-0.39-14.1h73.35z m0 0" fill="#FFFFFF" p-id="27819"></path></svg>