<?xml version="1.0" standalone="no"?><!DOCTYPE svg PUBLIC "-//W3C//DTD SVG 1.1//EN" "http://www.w3.org/Graphics/SVG/1.1/DTD/svg11.dtd"><svg t="1736335082685" class="icon" viewBox="0 0 1024 1024" version="1.1" xmlns="http://www.w3.org/2000/svg" p-id="23460" xmlns:xlink="http://www.w3.org/1999/xlink" width="200" height="200"><path d="M911.59 655.27A166.29 166.29 0 0 0 705 631.82L564.56 490.55 917.8 135.17l-52.52-52.84L512 437.71 158.8 82.33l-52.52 52.84 353.24 355.38L319.1 631.82a167.77 167.77 0 1 0 29.22 260.71c56-56.33 63.76-143.09 23.3-207.87L512 543.39l140.45 141.27C612 749.44 619.77 836.2 675.76 892.54a166.07 166.07 0 0 0 235.83 0c65.02-65.42 65.02-171.85 0-237.27zM295.79 839.7a92.2 92.2 0 0 1-130.78 0 93.43 93.43 0 0 1 0-131.58 92.08 92.08 0 0 1 130.78 0 93.56 93.56 0 0 1 0 131.58z m563.28 0a92.21 92.21 0 0 1-130.79 0 93.57 93.57 0 0 1 0-131.59 92.09 92.09 0 0 1 130.79 0 93.56 93.56 0 0 1 0 131.59z" fill="#333333" p-id="23461"></path></svg>