<?xml version="1.0" standalone="no"?><!DOCTYPE svg PUBLIC "-//W3C//DTD SVG 1.1//EN" "http://www.w3.org/Graphics/SVG/1.1/DTD/svg11.dtd"><svg t="1736335058768" class="icon" viewBox="0 0 1024 1024" version="1.1" xmlns="http://www.w3.org/2000/svg" p-id="21636" xmlns:xlink="http://www.w3.org/1999/xlink" width="200" height="200"><path d="M843.34 888.91l33.18-394H632.34l-13-111.2C664.4 350.4 691.56 298 691.56 242 691.56 144 611 64.27 512 64.27S332.44 144 332.44 242c0 56 27.16 108.38 72.23 141.71l-13 111.2H147.48l33.18 394h-39.8v70.82h742.28v-70.82zM460 335c-34.62-19-56.13-54.64-56.13-93 0-59 48.53-106.93 108.17-106.93s108.17 48 108.17 106.93c0 38.37-21.51 74-56.13 93l-20.98 11.51 17.37 148.42h-96.94l17.37-148.42z m146.58 553.91H417.42l37.82-323.16h113.52zM225.09 565.75h158.28l-37.82 323.16h-93.24z m453.36 323.16l-37.82-323.16h158.28l-27.22 323.16z" fill="#333333" p-id="21637"></path></svg>