<?xml version="1.0" standalone="no"?><!DOCTYPE svg PUBLIC "-//W3C//DTD SVG 1.1//EN" "http://www.w3.org/Graphics/SVG/1.1/DTD/svg11.dtd"><svg t="1736335022651" class="icon" viewBox="0 0 1024 1024" version="1.1" xmlns="http://www.w3.org/2000/svg" p-id="17878" xmlns:xlink="http://www.w3.org/1999/xlink" width="200" height="200"><path d="M512 0c-36.693333 38.4-145.066667 118.613333-426.666667 122.026667v531.626666C85.333333 842.24 462.506667 1004.373333 512 1024c47.786667-19.626667 426.666667-181.76 426.666667-370.346667V122.026667C653.653333 118.613333 546.133333 38.4 512 0z" fill="#4236DD" p-id="17879"></path><path d="M512 0c-36.693333 38.4-145.066667 118.613333-426.666667 122.026667v531.626666C85.333333 842.24 462.506667 1004.373333 512 1024z" fill="#574CE1" p-id="17880"></path><path d="M368.64 488.106667v32.426666h91.306667v200.533334h-38.4v-162.133334H366.933333a372.053333 372.053333 0 0 1-39.253333 164.693334 185.173333 185.173333 0 0 0-30.72-26.453334 494.933333 494.933333 0 0 0 32.426667-208.213333v-179.2h39.253333V426.666667h41.813333V298.666667h39.253334V426.666667h35.84v34.133333H368.64z m341.333333-53.76a475.306667 475.306667 0 0 1-62.293333 192 227.84 227.84 0 0 0 75.093333 62.293333 147.626667 147.626667 0 0 0-29.013333 34.986667 240.64 240.64 0 0 1-70.826667-64 267.093333 267.093333 0 0 1-78.506666 64 132.266667 132.266667 0 0 0-25.6-34.986667A225.28 225.28 0 0 0 597.333333 622.933333a563.2 563.2 0 0 1-53.76-155.306666v16.213333a502.613333 502.613333 0 0 1-44.373333 241.493333 205.653333 205.653333 0 0 0-34.133333-24.746666 468.48 468.48 0 0 0 38.4-216.746667V328.533333a1320.96 1320.96 0 0 0 190.293333-25.6l25.6 36.693334a1421.653333 1421.653333 0 0 1-170.666667 23.893333V426.666667H682.666667z m-129.706666 33.28a467.626667 467.626667 0 0 0 44.373333 120.32 426.666667 426.666667 0 0 0 42.666667-120.32z" fill="#FFFFFF" p-id="17881"></path></svg>