<?xml version="1.0" standalone="no"?><!DOCTYPE svg PUBLIC "-//W3C//DTD SVG 1.1//EN" "http://www.w3.org/Graphics/SVG/1.1/DTD/svg11.dtd"><svg t="1736335029946" class="icon" viewBox="0 0 1024 1024" version="1.1" xmlns="http://www.w3.org/2000/svg" p-id="18177" xmlns:xlink="http://www.w3.org/1999/xlink" width="200" height="200"><path d="M855.8592 20.48H167.936A147.456 147.456 0 0 0 20.48 167.8848v687.872a147.4048 147.4048 0 0 0 147.456 147.4048h687.872a147.4048 147.4048 0 0 0 147.4048-147.4048V167.8848a147.4048 147.4048 0 0 0-147.456-147.456z m49.152 786.1248c0 81.408-16.896 98.304-98.304 98.304H217.088c-81.408 0-98.2528-16.896-98.2528-98.304V217.088c0-81.408 16.896-98.304 98.304-98.304h589.568c81.408 0 98.304 16.896 98.304 98.304v589.568z m-494.1312-179.712c0 17.9712 6.656 31.8976 20.1216 41.6768 13.4144 9.728 31.5392 14.6432 54.3744 14.6432 28.8256 0 47.9232-6.4 57.344-19.1488 9.472-12.8 15.1552-25.6 17.152-38.3488h152.0128c0 24.064-5.2224 46.592-15.6672 67.584-10.4448 21.0944-25.6 39.1168-45.4656 54.1184-19.8656 15.7696-43.6736 28.16-71.5264 37.1712-27.8016 9.0112-59.0848 13.5168-93.8496 13.5168-46.6944 0-86.9376-7.4752-120.6784-22.528-33.792-15.0016-59.5968-34.9184-77.5168-59.6992a131.4816 131.4816 0 0 1-22.3232-51.8144 322.56 322.56 0 0 1-5.9904-64.256V411.648a322.56 322.56 0 0 1 5.9904-64.256c3.9424-19.5072 11.4176-36.8128 22.3232-51.8144 17.92-24.7808 43.7248-44.6976 77.5168-59.6992 33.792-15.0528 73.984-22.528 120.6784-22.528 34.816 0 66.304 4.5056 94.6176 13.5168 28.3136 9.0112 52.1728 21.5552 71.5264 37.7344 19.3536 16.128 34.304 35.4816 44.6976 58.0096 10.4448 22.528 15.6672 46.9504 15.6672 73.216h-152.0128c0-23.2448-6.656-40.3456-20.1216-51.2-13.4144-10.9056-31.5392-16.384-54.3744-16.384-22.8352 0-40.96 5.4784-54.3744 16.384-13.4144 10.8544-20.1216 27.1872-20.1216 48.9984v233.216z" fill="#13227a" p-id="18178"></path></svg>