<?xml version="1.0" standalone="no"?><!DOCTYPE svg PUBLIC "-//W3C//DTD SVG 1.1//EN" "http://www.w3.org/Graphics/SVG/1.1/DTD/svg11.dtd"><svg t="1736336489343" class="icon" viewBox="0 0 1024 1024" version="1.1" xmlns="http://www.w3.org/2000/svg" p-id="29816" xmlns:xlink="http://www.w3.org/1999/xlink" width="200" height="200"><path d="M570.359046 866.485771C356.139695 903.344101 96.398732 887.750192 0.000024 853.727119v39.693586c0 70.881403 58.12275 129.161667 129.161668 129.161667h764.731579c70.881403 0 129.161667-58.12275 129.161668-129.161667V706.136287C1003.208146 716.059683 776.072628 832.462698 570.359046 866.485771z m0 0" fill="#F16500" p-id="29817"></path><path d="M691.014945 354.2495c0 51.664667 36.858329 93.720966 82.222427 93.720966 45.521612 0 82.379942-41.898785 82.379942-93.720966 0-51.664667-36.858329-93.720966-82.379942-93.720966-45.364098 0.157514-82.222427 42.056299-82.222427 93.720966z m0 0" fill="#666465" p-id="29818"></path><path d="M604.382119 594.14367c-5.670512 0-9.923396 1.417628-12.758652 5.670512-2.835256 4.252884-5.670512 9.923396-5.670512 18.429165 0 9.923396 1.417628 15.593909 5.670512 21.264421 4.252884 4.252884 8.505768 7.08814 14.17628 7.08814 5.670512 0 9.923396-1.417628 12.758653-5.670512 2.835256-4.252884 5.670512-11.341024 5.670512-19.846793 0-8.505768-1.417628-15.593909-5.670512-19.846793-5.670512-5.670512-9.923396-7.08814-14.176281-7.08814z m147.590832-1.417628c-4.252884 0-8.505768 1.417628-11.341024 5.670512-2.835256 2.835256-4.252884 8.505768-4.252884 14.176281h32.605445c0-7.08814-1.417628-11.341024-4.252884-14.176281-4.252884-2.835256-8.505768-5.670512-12.758653-5.670512z m-327.787109 0c-4.252884 0-8.505768 1.417628-11.341025 5.670512-2.835256 2.835256-4.252884 8.505768-4.252884 14.176281H441.197378c0-7.08814-1.417628-11.341024-4.252884-14.176281-4.252884-2.835256-7.08814-5.670512-12.758652-5.670512z m0 0" fill="#666465" p-id="29819"></path><path d="M892.475643 0.945085H129.161692c-70.881403 0-129.161667 58.12275-129.161668 129.161668v557.600369c14.176281 8.505768 153.261344 80.804799 333.457622 92.303338 191.537302 11.341024 465.454545 0 688.179665-119.238271V130.106753c0-70.881403-58.12275-129.161667-129.161668-129.161668zM185.866814 535.863406c-70.881403 0-129.161667-28.352561-129.161667-28.352562v-89.468081s43.94647 18.429165 89.468081 29.770189c79.387171 12.758653 100.809106 2.835256 100.809107-21.264421s-21.264421-31.187817-63.793263-39.693586c-122.073527-28.352561-126.326411-88.050454-126.326411-120.655899 0-32.605445 22.682049-105.06199 126.326411-105.06199s131.996924 25.517305 131.996924 25.517305V266.356561c-43.94647-21.264421-105.06199-26.934933-131.996924-22.682049-35.440701 7.08814-38.275958 49.616982 15.593909 58.12275 59.540378 9.923396 141.92032 32.605445 141.92032 124.908783-0.157514 86.475311-83.955084 109.15736-154.836487 109.157361z m195.790186-133.257038V161.29457c0-68.046147 99.391478-69.463775 99.391478-69.463775v82.379942h86.632826v86.475311l-88.050454 1.417628v141.92032s-1.417628 25.517305 29.770189 36.85833c31.187817 11.341024 56.705122-8.505768 56.705123-8.505769v80.8048c-7.08814 8.505768-29.770189 19.846793-72.299031 19.846793-116.403015-1.417628-112.150131-130.421781-112.150131-130.421782zM412.844817 642.343024c2.835256 4.252884 7.08814 5.670512 12.758653 5.670512 2.835256 0 5.670512-1.417628 8.505768-2.835256 2.835256-1.417628 4.252884-4.252884 5.670512-8.505768l22.682049 4.252884c-2.835256 8.505768-7.08814 14.176281-12.758652 18.429165-5.670512 4.252884-14.176281 5.670512-22.682049 5.670512-14.176281 0-25.517305-4.252884-32.605445-14.176281-5.670512-7.08814-8.505768-17.011537-8.505769-28.352561 0-14.176281 4.252884-24.099677 11.341025-32.605445 7.08814-8.505768 17.011537-11.341024 26.934933-11.341024 12.758653 0 22.682049 4.252884 29.770189 12.758652 7.08814 8.505768 9.923396 21.264421 9.923396 38.275958h-55.287494c0 2.835256 1.417628 8.505768 4.252884 12.758652z m114.985387 19.846793l-17.011536-26.934933-17.011537 25.517305h-25.517305l29.770189-42.528842-28.352561-41.111213h26.934933l14.176281 22.682048 15.593908-22.682048h25.517305l-28.352561 39.693585 31.187817 43.94647H527.830204v1.417628z m106.479619-9.923396c-7.08814 7.08814-15.593909 11.341024-24.099677 11.341024-4.252884 0-8.505768-1.417628-12.758653-2.835256-4.252884-1.417628-7.08814-5.670512-11.341024-9.923397v42.528842h-22.682049v-114.985387H584.535326v12.758653c2.835256-4.252884 5.670512-7.08814 11.341025-9.923397 4.252884-2.835256 9.923396-4.252884 15.593909-4.252884 9.923396 0 18.429165 4.252884 24.099677 11.341025 7.08814 7.08814 9.923396 18.429165 9.923396 31.187817 0.157514 14.333795-4.09537 24.257191-11.18351 32.76296z m-39.8511-298.016921c0-100.809106 79.387171-181.613906 178.778649-181.613905 97.97385 0 178.778649 80.804799 178.77865 181.613905s-79.387171 181.613906-178.77865 181.613906c-99.233964 0-178.778649-80.804799-178.778649-181.613906z m100.809106 241.311798c-2.835256 0-5.670512 1.417628-8.505768 2.835256-2.835256 1.417628-4.252884 4.252884-5.670512 9.923397-1.417628 5.670512-1.417628 14.176281-1.417628 28.352561v25.517305H656.991872v-83.640055h19.846792v11.341024c2.835256-5.670512 7.08814-9.923396 9.923397-11.341024 2.835256-1.417628 5.670512-2.835256 9.923396-2.835257 5.670512 0 9.923396 1.417628 14.176281 4.252885l-7.08814 19.846792c-1.417628-2.835256-5.670512-4.252884-8.505769-4.252884z m45.364098 46.781726c2.835256 4.252884 7.08814 5.670512 12.758653 5.670512 2.835256 0 5.670512-1.417628 8.505768-2.835256 2.835256-1.417628 4.252884-4.252884 5.670512-8.505768l22.682049 4.252884c-2.835256 8.505768-7.08814 14.176281-12.758652 18.429165-5.670512 4.252884-14.176281 5.670512-22.682049 5.670512-14.176281 0-25.517305-4.252884-32.605446-14.176281-5.670512-7.08814-8.505768-17.011537-8.505768-28.352561 0-14.176281 4.252884-24.099677 11.341024-32.605445 7.08814-8.505768 17.011537-11.341024 26.934933-11.341024 12.758653 0 22.682049 4.252884 29.77019 12.758652 7.08814 8.505768 9.923396 21.264421 9.923396 38.275958h-55.287494c-1.417628 2.835256 0 8.505768 4.252884 12.758652z m124.908783 12.758653c-7.08814 5.670512-15.593909 8.505768-28.352561 8.505768-11.341024 0-19.846793-2.835256-26.934933-7.08814-7.08814-4.252884-11.341024-11.341024-12.758652-18.429165l22.682048-2.835256c1.417628 4.252884 2.835256 7.08814 5.670513 9.923396 2.835256 2.835256 7.08814 2.835256 12.758652 2.835256 5.670512 0 9.923396-1.417628 12.758653-2.835256 1.417628-1.417628 2.835256-2.835256 2.835256-5.670512 0-1.417628 0-2.835256-1.417628-4.252884-1.417628-1.417628-4.252884-1.417628-7.088141-2.835256-18.429165-4.252884-29.770189-7.08814-34.023073-11.341025-7.08814-4.252884-9.923396-11.341024-9.923396-18.429164 0-7.08814 2.835256-12.758653 8.505768-18.429165 5.670512-4.252884 14.176281-7.08814 26.934933-7.08814 11.341024 0 19.846793 1.417628 25.517305 5.670512 5.670512 4.252884 9.923396 8.505768 11.341025 17.011536l-22.682049 2.835257c-1.417628-2.835256-2.835256-5.670512-5.670513-7.088141-2.835256-1.417628-5.670512-2.835256-11.341024-2.835256s-9.923396 1.417628-12.758652 2.835256c-1.417628 1.417628-2.835256 2.835256-2.835257 4.252884 0 1.417628 1.417628 2.835256 2.835257 4.252885 1.417628 1.417628 8.505768 2.835256 21.26442 5.670512s19.846793 5.670512 24.099677 9.923396c4.252884 4.252884 7.08814 9.923396 7.088141 17.011537 1.417628 7.08814-2.835256 12.758653-8.505769 18.429165z m86.475312 0c-7.08814 5.670512-15.593909 8.505768-28.352561 8.505768-11.341024 0-19.846793-2.835256-26.934933-7.08814-7.08814-4.252884-11.341024-11.341024-12.758653-18.429165l22.682049-2.835256c1.417628 4.252884 2.835256 7.08814 5.670512 9.923396 2.835256 2.835256 7.08814 2.835256 12.758653 2.835256 5.670512 0 9.923396-1.417628 12.758652-2.835256 1.417628-1.417628 2.835256-2.835256 2.835256-5.670512 0-1.417628 0-2.835256-1.417628-4.252884-1.417628-1.417628-4.252884-1.417628-7.08814-2.835256-18.429165-4.252884-29.770189-7.08814-34.023073-11.341025-7.08814-4.252884-9.923396-11.341024-9.923397-18.429164 0-7.08814 2.835256-12.758653 8.505769-18.429165 5.670512-5.670512 14.176281-7.08814 26.934933-7.08814 11.341024 0 19.846793 1.417628 25.517305 5.670512 5.670512 4.252884 9.923396 8.505768 11.341024 17.011536l-21.264421 4.252885c-1.417628-2.835256-2.835256-5.670512-5.670512-7.088141-2.835256-1.417628-5.670512-2.835256-11.341024-2.835256s-9.923396 1.417628-12.758653 2.835256c-1.417628 1.417628-2.835256 2.835256-2.835256 4.252884 0 1.417628 1.417628 2.835256 2.835256 4.252885 1.417628 1.417628 8.505768 2.835256 21.264421 5.670512 11.341024 2.835256 19.846793 5.670512 24.099677 9.923396 4.252884 4.252884 7.08814 9.923396 7.08814 17.011537-1.417628 5.670512-4.252884 11.341024-9.923396 17.011537z m0 0" fill="#666465" p-id="29820"></path></svg>