<?xml version="1.0" standalone="no"?><!DOCTYPE svg PUBLIC "-//W3C//DTD SVG 1.1//EN" "http://www.w3.org/Graphics/SVG/1.1/DTD/svg11.dtd"><svg t="1736336451799" class="icon" viewBox="0 0 1024 1024" version="1.1" xmlns="http://www.w3.org/2000/svg" p-id="26318" xmlns:xlink="http://www.w3.org/1999/xlink" width="200" height="200"><path d="M910.795547 879.717225l-72.857418-94.873363a538.008255 538.008255 0 0 0 72.857418-272.895318c0-98.713353-26.009535-192.306719-72.857418-272.895318l72.857418-93.542166A643.223992 643.223992 0 0 1 1023.998464 511.948544c0 136.447659-41.625496 262.501744-113.202917 367.768681zM511.334146 113.050341c-95.794961 0.1024-189.951525 25.651136-273.253717 74.086215L144.435863 113.050341A648.292779 648.292779 0 0 1 511.334146 0.001024c136.601258 0 262.808943 41.625496 368.229479 113.049317l-94.975762 74.086215a537.240257 537.240257 0 0 0-273.253717-74.086215zM111.923944 511.948544c0 100.04455 27.289532 192.357919 74.188615 272.895318l-74.188615 94.873363A659.454351 659.454351 0 0 1 0.001024 511.999744a652.03037 652.03037 0 0 1 111.92292-366.437484l74.188615 93.490966a542.309044 542.309044 0 0 0-74.188615 272.895318z m244.581789-42.803093l6.502383 2.611194c45.567886 24.627138 123.596491 63.641441 123.596491 152.01242 0 37.683106-15.564761 76.646208-40.294299 98.764553-24.729538 22.067145-61.132647 35.071912-100.198149 35.071912v-0.0512c-52.07027 0-97.586956-14.284764-137.932455-44.185489h-1.279997v-100.04455l6.502383 6.502383c10.393574 14.284764 54.630263 58.470254 126.207685 58.470254 54.630263 0 59.85265-40.294299 59.85265-58.470254 0-35.071912-36.454309-54.579064-76.799808-74.035014l-2.559993-1.331197c-53.401466-25.958335-113.202917-54.527864-113.202917-131.225272 0-70.195025 58.521454-122.111695 139.212452-126.002885h10.393574c70.297424 0 105.420536 25.958335 111.92292 31.180722l1.279997 1.279997v85.759785l-6.502384-5.222387c-24.729538-22.067145-65.075037-35.071912-102.758143-35.071912-16.947158 0-32.563119 2.662393-42.956693 7.833581-16.895958 7.731181-24.729538 20.787148-24.729538 40.243099 0 23.398342 28.620728 37.683106 63.743841 55.91026z m179.609151 291.020073V317.081831l2.559993-1.279997c2.611193-1.331197 75.468611-29.900725 152.21722-29.900725 83.302192 0 124.927688 31.180722 124.927687 31.180722l1.279997 1.331197v85.759786l-5.171187-3.942391c-7.83358-5.171187-44.236689-31.180722-111.92292-32.409519h-3.89119c-35.123112 0-59.85265 7.731181-71.526221 11.673571l-1.331197 1.228797v379.442252h-87.142182z m-24.780738 150.732423c100.19815 0 193.842715-25.958335 273.253717-72.755018l94.975762 72.755018A652.798368 652.798368 0 0 1 511.334146 1023.998464c-135.321262 0-262.808943-41.625496-366.898283-113.100517L238.080429 838.142929a543.435441 543.435441 0 0 0 273.253717 72.755018z" fill="#000000" p-id="26319"></path><path d="M737.023181 585.47156c-31.078322 0-54.425464-23.244742-54.425463-52.991867a53.913465 53.913465 0 0 1 92.006169-38.451104c9.983975 10.188775 15.564761 24.01274 15.513562 38.451104a53.247867 53.247867 0 0 1-53.094268 53.043067" fill="#D92031" p-id="26320"></path></svg>