<?xml version="1.0" standalone="no"?><!DOCTYPE svg PUBLIC "-//W3C//DTD SVG 1.1//EN" "http://www.w3.org/Graphics/SVG/1.1/DTD/svg11.dtd"><svg t="1736336455441" class="icon" viewBox="0 0 1308 1024" version="1.1" xmlns="http://www.w3.org/2000/svg" p-id="26473" xmlns:xlink="http://www.w3.org/1999/xlink" width="255.46875" height="200"><path d="M280.451783 1019.449058C139.54325 1019.449058 0.568868 928.999092 0.568868 928.999092v-217.819448c249.164059 230.10699 412.429093 129.929386 412.429093 25.883481 0-103.42015-93.749399-133.115045-198.93304-188.067666C108.312413 494.099724 0 429.419465 0 258.190283 0 86.961101 176.519652 1.630944 310.999979 1.630944c134.480328 0 253.032359 65.249127 253.03236 65.249127v191.310212c-163.15126-140.225892-376.021559-91.132608-376.021559 12.287543 0 74.294123 144.66306 129.872499 205.190584 158.941639 60.584412 29.126027 198.250398 113.090902 198.250399 304.458001-0.682641 240.346609-170.20522 285.571593-311.056867 285.571592z m822.013847-388.422875a119.007126 119.007126 0 0 1-118.495144-119.519107c0-65.931768 52.904697-119.575994 118.552031-119.575993s118.552032 53.644225 118.552032 119.575993c0 65.931768-52.904697 119.519107-118.552032 119.519107zM1308.395743 258.872924s-178.453802-133.797686-412.372206-39.422532V1024h-181.639461V67.505825s264.523487-151.830793 594.011667 0V258.872924z" fill="#333333" p-id="26474"></path></svg>